<mxfile host="app.diagrams.net" agent="Mozilla/5.0 (Windows NT 10.0; Win64; x64) AppleWebKit/537.36 (KHTML, like Gecko) Chrome/140.0.0.0 Safari/537.36 Edg/140.0.0.0" version="28.2.5">
  <diagram name="단선-신호제어로직-하선" id="mrLvQRGA3PyRm6rwbz6y">
    <mxGraphModel dx="1063" dy="641" grid="1" gridSize="10" guides="1" tooltips="1" connect="1" arrows="1" fold="1" page="1" pageScale="1" pageWidth="827" pageHeight="1169" math="0" shadow="0">
      <root>
        <mxCell id="0" />
        <mxCell id="1" parent="0" />
        <mxCell id="7ok6oC4QqBGluofvjfyL-1" value="" style="endArrow=none;html=1;rounded=0;" edge="1" parent="1">
          <mxGeometry width="50" height="50" relative="1" as="geometry">
            <mxPoint x="445" y="152" as="sourcePoint" />
            <mxPoint x="1257" y="152" as="targetPoint" />
          </mxGeometry>
        </mxCell>
        <mxCell id="7ok6oC4QqBGluofvjfyL-2" value="GNU" style="text;html=1;strokeColor=none;fillColor=none;align=center;verticalAlign=middle;whiteSpace=wrap;rounded=0;fontFamily=Helvetica;fontSize=11;fontColor=default;" vertex="1" parent="1">
          <mxGeometry x="481" y="128" width="40" height="11" as="geometry" />
        </mxCell>
        <mxCell id="7ok6oC4QqBGluofvjfyL-3" value="" style="endArrow=none;html=1;rounded=0;" edge="1" parent="1">
          <mxGeometry width="50" height="50" relative="1" as="geometry">
            <mxPoint x="444" y="1714" as="sourcePoint" />
            <mxPoint x="444" y="127" as="targetPoint" />
          </mxGeometry>
        </mxCell>
        <mxCell id="7ok6oC4QqBGluofvjfyL-4" value="GLMR-M" style="text;html=1;strokeColor=none;fillColor=none;align=center;verticalAlign=middle;whiteSpace=wrap;rounded=0;fontFamily=Helvetica;fontSize=11;fontColor=default;" vertex="1" parent="1">
          <mxGeometry x="534" y="128" width="47" height="11" as="geometry" />
        </mxCell>
        <mxCell id="7ok6oC4QqBGluofvjfyL-5" value="GLMR-A" style="text;html=1;strokeColor=none;fillColor=none;align=center;verticalAlign=middle;whiteSpace=wrap;rounded=0;fontFamily=Helvetica;fontSize=11;fontColor=default;" vertex="1" parent="1">
          <mxGeometry x="591" y="128" width="47" height="11" as="geometry" />
        </mxCell>
        <mxCell id="7ok6oC4QqBGluofvjfyL-6" value="GEU" style="text;html=1;strokeColor=none;fillColor=none;align=center;verticalAlign=middle;whiteSpace=wrap;rounded=0;fontFamily=Helvetica;fontSize=11;fontColor=default;" vertex="1" parent="1">
          <mxGeometry x="649" y="128" width="40" height="11" as="geometry" />
        </mxCell>
        <mxCell id="7ok6oC4QqBGluofvjfyL-7" value="YLMR-M" style="text;html=1;strokeColor=none;fillColor=none;align=center;verticalAlign=middle;whiteSpace=wrap;rounded=0;fontFamily=Helvetica;fontSize=11;fontColor=default;" vertex="1" parent="1">
          <mxGeometry x="702" y="128" width="47" height="11" as="geometry" />
        </mxCell>
        <mxCell id="7ok6oC4QqBGluofvjfyL-8" value="YLMR-A" style="text;html=1;strokeColor=none;fillColor=none;align=center;verticalAlign=middle;whiteSpace=wrap;rounded=0;fontFamily=Helvetica;fontSize=11;fontColor=default;" vertex="1" parent="1">
          <mxGeometry x="758" y="129" width="47" height="12" as="geometry" />
        </mxCell>
        <mxCell id="7ok6oC4QqBGluofvjfyL-9" value="GE1U" style="text;html=1;strokeColor=none;fillColor=none;align=center;verticalAlign=middle;whiteSpace=wrap;rounded=0;fontFamily=Helvetica;fontSize=11;fontColor=default;" vertex="1" parent="1">
          <mxGeometry x="929" y="131" width="40" height="10" as="geometry" />
        </mxCell>
        <mxCell id="7ok6oC4QqBGluofvjfyL-10" value="BL2" style="text;html=1;strokeColor=none;fillColor=none;align=center;verticalAlign=middle;whiteSpace=wrap;rounded=0;fontFamily=Helvetica;fontSize=11;fontColor=default;" vertex="1" parent="1">
          <mxGeometry x="981" y="130" width="47" height="9" as="geometry" />
        </mxCell>
        <mxCell id="7ok6oC4QqBGluofvjfyL-11" value="BL1" style="text;html=1;strokeColor=none;fillColor=none;align=center;verticalAlign=middle;whiteSpace=wrap;rounded=0;fontFamily=Helvetica;fontSize=11;fontColor=default;" vertex="1" parent="1">
          <mxGeometry x="1038" y="130" width="47" height="10" as="geometry" />
        </mxCell>
        <mxCell id="7ok6oC4QqBGluofvjfyL-12" value="PR.R&lt;span style=&quot;background-color: transparent; color: light-dark(rgb(0, 0, 0), rgb(255, 255, 255));&quot;&gt;R&lt;/span&gt;" style="text;html=1;strokeColor=none;fillColor=none;align=center;verticalAlign=middle;whiteSpace=wrap;rounded=0;fontFamily=Helvetica;fontSize=11;fontColor=default;" vertex="1" parent="1">
          <mxGeometry x="482" y="184" width="40" height="11" as="geometry" />
        </mxCell>
        <mxCell id="7ok6oC4QqBGluofvjfyL-13" value="PR" style="text;html=1;strokeColor=none;fillColor=none;align=center;verticalAlign=middle;whiteSpace=wrap;rounded=0;fontFamily=Helvetica;fontSize=11;fontColor=default;" vertex="1" parent="1">
          <mxGeometry x="1201" y="192" width="47" height="13" as="geometry" />
        </mxCell>
        <mxCell id="7ok6oC4QqBGluofvjfyL-14" value="EMS" style="text;html=1;strokeColor=none;fillColor=none;align=center;verticalAlign=middle;whiteSpace=wrap;rounded=0;fontFamily=Helvetica;fontSize=11;fontColor=default;" vertex="1" parent="1">
          <mxGeometry x="481" y="240" width="40" height="13" as="geometry" />
        </mxCell>
        <mxCell id="7ok6oC4QqBGluofvjfyL-15" value="TR" style="text;html=1;strokeColor=none;fillColor=none;align=center;verticalAlign=middle;whiteSpace=wrap;rounded=0;fontFamily=Helvetica;fontSize=11;fontColor=default;" vertex="1" parent="1">
          <mxGeometry x="533" y="240" width="47" height="13" as="geometry" />
        </mxCell>
        <mxCell id="7ok6oC4QqBGluofvjfyL-16" value="DIR" style="text;html=1;strokeColor=none;fillColor=none;align=center;verticalAlign=middle;whiteSpace=wrap;rounded=0;fontFamily=Helvetica;fontSize=11;fontColor=default;" vertex="1" parent="1">
          <mxGeometry x="590" y="240" width="47" height="13" as="geometry" />
        </mxCell>
        <mxCell id="7ok6oC4QqBGluofvjfyL-17" value="FP" style="text;html=1;strokeColor=none;fillColor=none;align=center;verticalAlign=middle;whiteSpace=wrap;rounded=0;fontFamily=Helvetica;fontSize=11;fontColor=default;" vertex="1" parent="1">
          <mxGeometry x="706" y="240" width="40" height="13" as="geometry" />
        </mxCell>
        <mxCell id="7ok6oC4QqBGluofvjfyL-18" value="FP1" style="text;html=1;strokeColor=none;fillColor=none;align=center;verticalAlign=middle;whiteSpace=wrap;rounded=0;fontFamily=Helvetica;fontSize=11;fontColor=default;" vertex="1" parent="1">
          <mxGeometry x="758" y="240" width="47" height="13" as="geometry" />
        </mxCell>
        <mxCell id="7ok6oC4QqBGluofvjfyL-19" value="FP2" style="text;html=1;strokeColor=none;fillColor=none;align=center;verticalAlign=middle;whiteSpace=wrap;rounded=0;fontFamily=Helvetica;fontSize=11;fontColor=default;" vertex="1" parent="1">
          <mxGeometry x="814" y="239" width="47" height="14" as="geometry" />
        </mxCell>
        <mxCell id="7ok6oC4QqBGluofvjfyL-20" value="FP3" style="text;html=1;strokeColor=none;fillColor=none;align=center;verticalAlign=middle;whiteSpace=wrap;rounded=0;fontFamily=Helvetica;fontSize=11;fontColor=default;" vertex="1" parent="1">
          <mxGeometry x="874" y="240" width="40" height="13" as="geometry" />
        </mxCell>
        <mxCell id="7ok6oC4QqBGluofvjfyL-21" value="&lt;font style=&quot;font-size: 10px;&quot;&gt;BL1.AR(0)&lt;/font&gt;" style="text;html=1;strokeColor=none;fillColor=none;align=center;verticalAlign=middle;whiteSpace=wrap;rounded=0;fontFamily=Helvetica;fontSize=11;fontColor=default;" vertex="1" parent="1">
          <mxGeometry x="1192" y="238" width="47" height="12" as="geometry" />
        </mxCell>
        <mxCell id="7ok6oC4QqBGluofvjfyL-22" value="" style="endArrow=none;html=1;rounded=0;" edge="1" parent="1">
          <mxGeometry width="50" height="50" relative="1" as="geometry">
            <mxPoint x="669" y="265" as="sourcePoint" />
            <mxPoint x="949" y="265" as="targetPoint" />
            <Array as="points">
              <mxPoint x="669" y="307" />
              <mxPoint x="949" y="307" />
            </Array>
          </mxGeometry>
        </mxCell>
        <mxCell id="7ok6oC4QqBGluofvjfyL-23" value="BL1" style="text;html=1;strokeColor=none;fillColor=none;align=center;verticalAlign=middle;whiteSpace=wrap;rounded=0;fontFamily=Helvetica;fontSize=11;fontColor=default;" vertex="1" parent="1">
          <mxGeometry x="702" y="285" width="47" height="10" as="geometry" />
        </mxCell>
        <mxCell id="7ok6oC4QqBGluofvjfyL-24" value="BL1.RR" style="text;html=1;strokeColor=none;fillColor=none;align=center;verticalAlign=middle;whiteSpace=wrap;rounded=0;fontFamily=Helvetica;fontSize=11;fontColor=default;" vertex="1" parent="1">
          <mxGeometry x="538" y="320" width="40" height="17" as="geometry" />
        </mxCell>
        <mxCell id="7ok6oC4QqBGluofvjfyL-25" value="CPT" style="text;html=1;strokeColor=none;fillColor=none;align=center;verticalAlign=middle;whiteSpace=wrap;rounded=0;fontFamily=Helvetica;fontSize=11;fontColor=default;" vertex="1" parent="1">
          <mxGeometry x="705" y="324" width="40" height="14" as="geometry" />
        </mxCell>
        <mxCell id="7ok6oC4QqBGluofvjfyL-26" value="전방.T-SW" style="text;html=1;strokeColor=none;fillColor=none;align=center;verticalAlign=middle;whiteSpace=wrap;rounded=0;fontFamily=Helvetica;fontSize=11;fontColor=default;" vertex="1" parent="1">
          <mxGeometry x="807" y="323" width="62" height="15" as="geometry" />
        </mxCell>
        <mxCell id="7ok6oC4QqBGluofvjfyL-27" value="BL1" style="text;html=1;strokeColor=none;fillColor=none;align=center;verticalAlign=middle;whiteSpace=wrap;rounded=0;fontFamily=Helvetica;fontSize=11;fontColor=default;" vertex="1" parent="1">
          <mxGeometry x="1202" y="331" width="47" height="13" as="geometry" />
        </mxCell>
        <mxCell id="7ok6oC4QqBGluofvjfyL-28" value="" style="endArrow=none;html=1;rounded=0;" edge="1" parent="1">
          <mxGeometry width="50" height="50" relative="1" as="geometry">
            <mxPoint x="669" y="349" as="sourcePoint" />
            <mxPoint x="781" y="349" as="targetPoint" />
            <Array as="points">
              <mxPoint x="669" y="391" />
              <mxPoint x="781" y="391" />
            </Array>
          </mxGeometry>
        </mxCell>
        <mxCell id="7ok6oC4QqBGluofvjfyL-29" value="ECPT" style="text;html=1;strokeColor=none;fillColor=none;align=center;verticalAlign=middle;whiteSpace=wrap;rounded=0;fontFamily=Helvetica;fontSize=11;fontColor=default;" vertex="1" parent="1">
          <mxGeometry x="702" y="368" width="47" height="12" as="geometry" />
        </mxCell>
        <mxCell id="7ok6oC4QqBGluofvjfyL-30" value="TR" style="text;html=1;strokeColor=none;fillColor=none;align=center;verticalAlign=middle;whiteSpace=wrap;rounded=0;fontFamily=Helvetica;fontSize=11;fontColor=default;" vertex="1" parent="1">
          <mxGeometry x="481" y="407" width="40" height="14" as="geometry" />
        </mxCell>
        <mxCell id="7ok6oC4QqBGluofvjfyL-31" value="DIR" style="text;html=1;strokeColor=none;fillColor=none;align=center;verticalAlign=middle;whiteSpace=wrap;rounded=0;fontFamily=Helvetica;fontSize=11;fontColor=default;" vertex="1" parent="1">
          <mxGeometry x="537" y="407" width="40" height="16" as="geometry" />
        </mxCell>
        <mxCell id="7ok6oC4QqBGluofvjfyL-32" value="FMPR.AR" style="text;html=1;strokeColor=none;fillColor=none;align=center;verticalAlign=middle;whiteSpace=wrap;rounded=0;fontFamily=Helvetica;fontSize=11;fontColor=default;" vertex="1" parent="1">
          <mxGeometry x="480" y="461" width="40" height="16" as="geometry" />
        </mxCell>
        <mxCell id="7ok6oC4QqBGluofvjfyL-33" value="FMPR" style="text;html=1;strokeColor=none;fillColor=none;align=center;verticalAlign=middle;whiteSpace=wrap;rounded=0;fontFamily=Helvetica;fontSize=11;fontColor=default;" vertex="1" parent="1">
          <mxGeometry x="1202" y="470" width="47" height="13" as="geometry" />
        </mxCell>
        <mxCell id="7ok6oC4QqBGluofvjfyL-34" value="FMPR.RR" style="text;html=1;strokeColor=none;fillColor=none;align=center;verticalAlign=middle;whiteSpace=wrap;rounded=0;fontFamily=Helvetica;fontSize=11;fontColor=default;" vertex="1" parent="1">
          <mxGeometry x="535" y="461" width="47" height="17" as="geometry" />
        </mxCell>
        <mxCell id="7ok6oC4QqBGluofvjfyL-35" value="TR" style="text;html=1;strokeColor=none;fillColor=none;align=center;verticalAlign=middle;whiteSpace=wrap;rounded=0;fontFamily=Helvetica;fontSize=11;fontColor=default;" vertex="1" parent="1">
          <mxGeometry x="482" y="545" width="40" height="17" as="geometry" />
        </mxCell>
        <mxCell id="7ok6oC4QqBGluofvjfyL-36" value="DIR" style="text;html=1;strokeColor=none;fillColor=none;align=center;verticalAlign=middle;whiteSpace=wrap;rounded=0;fontFamily=Helvetica;fontSize=11;fontColor=default;" vertex="1" parent="1">
          <mxGeometry x="537" y="547" width="40" height="16" as="geometry" />
        </mxCell>
        <mxCell id="7ok6oC4QqBGluofvjfyL-37" value="BL2.RR" style="text;html=1;strokeColor=none;fillColor=none;align=center;verticalAlign=middle;whiteSpace=wrap;rounded=0;fontFamily=Helvetica;fontSize=11;fontColor=default;" vertex="1" parent="1">
          <mxGeometry x="539" y="602" width="40" height="16" as="geometry" />
        </mxCell>
        <mxCell id="7ok6oC4QqBGluofvjfyL-38" value="BL2" style="text;html=1;strokeColor=none;fillColor=none;align=center;verticalAlign=middle;whiteSpace=wrap;rounded=0;fontFamily=Helvetica;fontSize=11;fontColor=default;" vertex="1" parent="1">
          <mxGeometry x="1202" y="612" width="47" height="13" as="geometry" />
        </mxCell>
        <mxCell id="7ok6oC4QqBGluofvjfyL-39" value="BL2.AR" style="text;html=1;strokeColor=none;fillColor=none;align=center;verticalAlign=middle;whiteSpace=wrap;rounded=0;fontFamily=Helvetica;fontSize=11;fontColor=default;" vertex="1" parent="1">
          <mxGeometry x="479" y="600" width="47" height="18" as="geometry" />
        </mxCell>
        <mxCell id="7ok6oC4QqBGluofvjfyL-40" value="BL1" style="text;html=1;strokeColor=none;fillColor=none;align=center;verticalAlign=middle;whiteSpace=wrap;rounded=0;fontFamily=Helvetica;fontSize=11;fontColor=default;" vertex="1" parent="1">
          <mxGeometry x="594" y="545" width="40" height="18" as="geometry" />
        </mxCell>
        <mxCell id="7ok6oC4QqBGluofvjfyL-41" value="EH3" style="text;html=1;strokeColor=none;fillColor=none;align=center;verticalAlign=middle;whiteSpace=wrap;rounded=0;fontFamily=Helvetica;fontSize=11;fontColor=default;" vertex="1" parent="1">
          <mxGeometry x="649" y="545" width="40" height="17" as="geometry" />
        </mxCell>
        <mxCell id="7ok6oC4QqBGluofvjfyL-42" value="TR" style="text;html=1;strokeColor=none;fillColor=none;align=center;verticalAlign=middle;whiteSpace=wrap;rounded=0;fontFamily=Helvetica;fontSize=11;fontColor=default;" vertex="1" parent="1">
          <mxGeometry x="481" y="688" width="40" height="11" as="geometry" />
        </mxCell>
        <mxCell id="7ok6oC4QqBGluofvjfyL-43" value="DIR" style="text;html=1;strokeColor=none;fillColor=none;align=center;verticalAlign=middle;whiteSpace=wrap;rounded=0;fontFamily=Helvetica;fontSize=11;fontColor=default;" vertex="1" parent="1">
          <mxGeometry x="537" y="689" width="40" height="10" as="geometry" />
        </mxCell>
        <mxCell id="7ok6oC4QqBGluofvjfyL-44" value="FP.RR" style="text;html=1;strokeColor=none;fillColor=none;align=center;verticalAlign=middle;whiteSpace=wrap;rounded=0;fontFamily=Helvetica;fontSize=11;fontColor=default;" vertex="1" parent="1">
          <mxGeometry x="538" y="745" width="40" height="9" as="geometry" />
        </mxCell>
        <mxCell id="7ok6oC4QqBGluofvjfyL-45" value="FP" style="text;html=1;strokeColor=none;fillColor=none;align=center;verticalAlign=middle;whiteSpace=wrap;rounded=0;fontFamily=Helvetica;fontSize=11;fontColor=default;" vertex="1" parent="1">
          <mxGeometry x="1204" y="751" width="47" height="13" as="geometry" />
        </mxCell>
        <mxCell id="7ok6oC4QqBGluofvjfyL-46" value="FP.AR" style="text;html=1;strokeColor=none;fillColor=none;align=center;verticalAlign=middle;whiteSpace=wrap;rounded=0;fontFamily=Helvetica;fontSize=11;fontColor=default;" vertex="1" parent="1">
          <mxGeometry x="478" y="743" width="47" height="13" as="geometry" />
        </mxCell>
        <mxCell id="7ok6oC4QqBGluofvjfyL-47" value="BL1" style="text;html=1;strokeColor=none;fillColor=none;align=center;verticalAlign=middle;whiteSpace=wrap;rounded=0;fontFamily=Helvetica;fontSize=11;fontColor=default;" vertex="1" parent="1">
          <mxGeometry x="593" y="688" width="40" height="12" as="geometry" />
        </mxCell>
        <mxCell id="7ok6oC4QqBGluofvjfyL-48" value="EH3" style="text;html=1;strokeColor=none;fillColor=none;align=center;verticalAlign=middle;whiteSpace=wrap;rounded=0;fontFamily=Helvetica;fontSize=11;fontColor=default;" vertex="1" parent="1">
          <mxGeometry x="649" y="689" width="40" height="11" as="geometry" />
        </mxCell>
        <mxCell id="7ok6oC4QqBGluofvjfyL-49" value="TR" style="text;html=1;strokeColor=none;fillColor=none;align=center;verticalAlign=middle;whiteSpace=wrap;rounded=0;fontFamily=Helvetica;fontSize=11;fontColor=default;" vertex="1" parent="1">
          <mxGeometry x="481" y="829" width="40" height="10" as="geometry" />
        </mxCell>
        <mxCell id="7ok6oC4QqBGluofvjfyL-50" value="DIR" style="text;html=1;strokeColor=none;fillColor=none;align=center;verticalAlign=middle;whiteSpace=wrap;rounded=0;fontFamily=Helvetica;fontSize=11;fontColor=default;" vertex="1" parent="1">
          <mxGeometry x="537" y="829" width="40" height="9" as="geometry" />
        </mxCell>
        <mxCell id="7ok6oC4QqBGluofvjfyL-51" value="FP1" style="text;html=1;strokeColor=none;fillColor=none;align=center;verticalAlign=middle;whiteSpace=wrap;rounded=0;fontFamily=Helvetica;fontSize=11;fontColor=default;" vertex="1" parent="1">
          <mxGeometry x="1202" y="836" width="47" height="13" as="geometry" />
        </mxCell>
        <mxCell id="7ok6oC4QqBGluofvjfyL-52" value="BL1" style="text;html=1;strokeColor=none;fillColor=none;align=center;verticalAlign=middle;whiteSpace=wrap;rounded=0;fontFamily=Helvetica;fontSize=11;fontColor=default;" vertex="1" parent="1">
          <mxGeometry x="594" y="828" width="40" height="11" as="geometry" />
        </mxCell>
        <mxCell id="7ok6oC4QqBGluofvjfyL-53" value="BL2" style="text;html=1;strokeColor=none;fillColor=none;align=center;verticalAlign=middle;whiteSpace=wrap;rounded=0;fontFamily=Helvetica;fontSize=11;fontColor=default;" vertex="1" parent="1">
          <mxGeometry x="650" y="830" width="40" height="10" as="geometry" />
        </mxCell>
        <mxCell id="7ok6oC4QqBGluofvjfyL-54" value="TR" style="text;html=1;strokeColor=none;fillColor=none;align=center;verticalAlign=middle;whiteSpace=wrap;rounded=0;fontFamily=Helvetica;fontSize=11;fontColor=default;" vertex="1" parent="1">
          <mxGeometry x="481" y="885" width="40" height="9" as="geometry" />
        </mxCell>
        <mxCell id="7ok6oC4QqBGluofvjfyL-55" value="DIR" style="text;html=1;strokeColor=none;fillColor=none;align=center;verticalAlign=middle;whiteSpace=wrap;rounded=0;fontFamily=Helvetica;fontSize=11;fontColor=default;" vertex="1" parent="1">
          <mxGeometry x="537" y="886" width="40" height="8" as="geometry" />
        </mxCell>
        <mxCell id="7ok6oC4QqBGluofvjfyL-56" value="FP2.RR" style="text;html=1;strokeColor=none;fillColor=none;align=center;verticalAlign=middle;whiteSpace=wrap;rounded=0;fontFamily=Helvetica;fontSize=11;fontColor=default;" vertex="1" parent="1">
          <mxGeometry x="539" y="941" width="40" height="9" as="geometry" />
        </mxCell>
        <mxCell id="7ok6oC4QqBGluofvjfyL-57" value="FP2" style="text;html=1;strokeColor=none;fillColor=none;align=center;verticalAlign=middle;whiteSpace=wrap;rounded=0;fontFamily=Helvetica;fontSize=11;fontColor=default;" vertex="1" parent="1">
          <mxGeometry x="1203" y="948" width="47" height="13" as="geometry" />
        </mxCell>
        <mxCell id="7ok6oC4QqBGluofvjfyL-58" value="FP2.AR" style="text;html=1;strokeColor=none;fillColor=none;align=center;verticalAlign=middle;whiteSpace=wrap;rounded=0;fontFamily=Helvetica;fontSize=11;fontColor=default;" vertex="1" parent="1">
          <mxGeometry x="480" y="941" width="47" height="8" as="geometry" />
        </mxCell>
        <mxCell id="7ok6oC4QqBGluofvjfyL-59" value="BL1" style="text;html=1;strokeColor=none;fillColor=none;align=center;verticalAlign=middle;whiteSpace=wrap;rounded=0;fontFamily=Helvetica;fontSize=11;fontColor=default;" vertex="1" parent="1">
          <mxGeometry x="594" y="885" width="40" height="10" as="geometry" />
        </mxCell>
        <mxCell id="7ok6oC4QqBGluofvjfyL-60" value="RLMR-M" style="text;html=1;strokeColor=none;fillColor=none;align=center;verticalAlign=middle;whiteSpace=wrap;rounded=0;fontFamily=Helvetica;fontSize=11;fontColor=default;" vertex="1" parent="1">
          <mxGeometry x="643" y="886" width="52" height="9" as="geometry" />
        </mxCell>
        <mxCell id="7ok6oC4QqBGluofvjfyL-61" value="RLMRA-RR" style="text;html=1;strokeColor=none;fillColor=none;align=center;verticalAlign=middle;whiteSpace=wrap;rounded=0;fontFamily=Helvetica;fontSize=11;fontColor=default;" vertex="1" parent="1">
          <mxGeometry x="695" y="886" width="68" height="9" as="geometry" />
        </mxCell>
        <mxCell id="7ok6oC4QqBGluofvjfyL-62" value="EH3" style="text;html=1;strokeColor=none;fillColor=none;align=center;verticalAlign=middle;whiteSpace=wrap;rounded=0;fontFamily=Helvetica;fontSize=11;fontColor=default;" vertex="1" parent="1">
          <mxGeometry x="818" y="885" width="40" height="9" as="geometry" />
        </mxCell>
        <mxCell id="7ok6oC4QqBGluofvjfyL-63" value="FP1" style="text;html=1;strokeColor=none;fillColor=none;align=center;verticalAlign=middle;whiteSpace=wrap;rounded=0;fontFamily=Helvetica;fontSize=11;fontColor=default;" vertex="1" parent="1">
          <mxGeometry x="929" y="885" width="40" height="9" as="geometry" />
        </mxCell>
        <mxCell id="7ok6oC4QqBGluofvjfyL-64" value="EH2" style="text;html=1;strokeColor=none;fillColor=none;align=center;verticalAlign=middle;whiteSpace=wrap;rounded=0;fontFamily=Helvetica;fontSize=11;fontColor=default;" vertex="1" parent="1">
          <mxGeometry x="1041" y="885" width="40" height="9" as="geometry" />
        </mxCell>
        <mxCell id="7ok6oC4QqBGluofvjfyL-65" value="EH1" style="text;html=1;strokeColor=none;fillColor=none;align=center;verticalAlign=middle;whiteSpace=wrap;rounded=0;fontFamily=Helvetica;fontSize=11;fontColor=default;" vertex="1" parent="1">
          <mxGeometry x="985" y="886" width="40" height="8" as="geometry" />
        </mxCell>
        <mxCell id="7ok6oC4QqBGluofvjfyL-66" value="Y1LMR-M" style="text;html=1;strokeColor=none;fillColor=none;align=center;verticalAlign=middle;whiteSpace=wrap;rounded=0;fontFamily=Helvetica;fontSize=11;fontColor=default;" vertex="1" parent="1">
          <mxGeometry x="533" y="1187" width="53" height="20" as="geometry" />
        </mxCell>
        <mxCell id="7ok6oC4QqBGluofvjfyL-67" value="Y1LMR-A" style="text;html=1;strokeColor=none;fillColor=none;align=center;verticalAlign=middle;whiteSpace=wrap;rounded=0;fontFamily=Helvetica;fontSize=11;fontColor=default;" vertex="1" parent="1">
          <mxGeometry x="531" y="1232" width="55" height="20" as="geometry" />
        </mxCell>
        <mxCell id="7ok6oC4QqBGluofvjfyL-68" value="RLMR-A" style="text;html=1;strokeColor=none;fillColor=none;align=center;verticalAlign=middle;whiteSpace=wrap;rounded=0;fontFamily=Helvetica;fontSize=11;fontColor=default;" vertex="1" parent="1">
          <mxGeometry x="477" y="1666" width="53" height="15" as="geometry" />
        </mxCell>
        <mxCell id="7ok6oC4QqBGluofvjfyL-69" value="1" style="text;html=1;strokeColor=none;fillColor=none;align=center;verticalAlign=middle;whiteSpace=wrap;rounded=0;fontFamily=Helvetica;fontSize=11;fontColor=default;" vertex="1" parent="1">
          <mxGeometry x="420" y="128" width="20" height="20" as="geometry" />
        </mxCell>
        <mxCell id="7ok6oC4QqBGluofvjfyL-70" value="2" style="text;html=1;strokeColor=none;fillColor=none;align=center;verticalAlign=middle;whiteSpace=wrap;rounded=0;fontFamily=Helvetica;fontSize=11;fontColor=default;" vertex="1" parent="1">
          <mxGeometry x="420" y="189" width="21" height="16" as="geometry" />
        </mxCell>
        <mxCell id="7ok6oC4QqBGluofvjfyL-71" value="" style="endArrow=none;html=1;rounded=0;" edge="1" parent="1">
          <mxGeometry width="50" height="50" relative="1" as="geometry">
            <mxPoint x="445" y="208" as="sourcePoint" />
            <mxPoint x="1257" y="208" as="targetPoint" />
          </mxGeometry>
        </mxCell>
        <mxCell id="7ok6oC4QqBGluofvjfyL-72" value="" style="endArrow=none;html=1;rounded=0;labelBackgroundColor=default;fontFamily=Helvetica;fontSize=11;fontColor=default;startSize=3;endSize=3;sourcePerimeterSpacing=0;strokeColor=default;shape=connector;jumpStyle=none;jumpSize=6;" edge="1" parent="1">
          <mxGeometry width="50" height="50" relative="1" as="geometry">
            <mxPoint x="1193" y="206.5" as="sourcePoint" />
            <mxPoint x="1256" y="207" as="targetPoint" />
            <Array as="points">
              <mxPoint x="1193" y="185.5" />
              <mxPoint x="1256" y="185.5" />
            </Array>
          </mxGeometry>
        </mxCell>
        <mxCell id="7ok6oC4QqBGluofvjfyL-73" value="" style="verticalLabelPosition=bottom;html=1;verticalAlign=top;align=center;shape=mxgraph.floorplan.windowBow;strokeWidth=1;fontSize=11;direction=west;" vertex="1" parent="1">
          <mxGeometry x="490" y="152.5" width="21" height="11" as="geometry" />
        </mxCell>
        <mxCell id="7ok6oC4QqBGluofvjfyL-74" value="" style="verticalLabelPosition=bottom;html=1;verticalAlign=top;align=center;shape=mxgraph.floorplan.windowBow;strokeWidth=1;fontSize=11;direction=west;" vertex="1" parent="1">
          <mxGeometry x="545" y="152.5" width="21" height="11" as="geometry" />
        </mxCell>
        <mxCell id="7ok6oC4QqBGluofvjfyL-75" value="" style="verticalLabelPosition=bottom;html=1;verticalAlign=top;align=center;shape=mxgraph.floorplan.windowBow;strokeWidth=1;fontSize=11;direction=west;" vertex="1" parent="1">
          <mxGeometry x="602" y="152.5" width="21" height="11" as="geometry" />
        </mxCell>
        <mxCell id="7ok6oC4QqBGluofvjfyL-76" value="" style="verticalLabelPosition=bottom;html=1;verticalAlign=top;align=center;shape=mxgraph.floorplan.windowBow;strokeWidth=1;fontSize=11;direction=west;" vertex="1" parent="1">
          <mxGeometry x="658" y="152.5" width="21" height="11" as="geometry" />
        </mxCell>
        <mxCell id="7ok6oC4QqBGluofvjfyL-77" value="" style="verticalLabelPosition=bottom;html=1;verticalAlign=top;align=center;shape=mxgraph.floorplan.windowBow;strokeWidth=1;fontSize=11;direction=west;" vertex="1" parent="1">
          <mxGeometry x="714" y="152.5" width="21" height="11" as="geometry" />
        </mxCell>
        <mxCell id="7ok6oC4QqBGluofvjfyL-78" value="" style="verticalLabelPosition=bottom;html=1;verticalAlign=top;align=center;shape=mxgraph.floorplan.windowBow;strokeWidth=1;fontSize=11;direction=west;" vertex="1" parent="1">
          <mxGeometry x="770" y="152.5" width="21" height="11" as="geometry" />
        </mxCell>
        <mxCell id="7ok6oC4QqBGluofvjfyL-79" value="" style="verticalLabelPosition=bottom;html=1;verticalAlign=top;align=center;shape=mxgraph.floorplan.windowBow;strokeWidth=1;fontSize=11;direction=west;" vertex="1" parent="1">
          <mxGeometry x="938" y="152.5" width="21" height="11" as="geometry" />
        </mxCell>
        <mxCell id="7ok6oC4QqBGluofvjfyL-80" value="" style="verticalLabelPosition=bottom;html=1;verticalAlign=top;align=center;shape=mxgraph.floorplan.windowBow;strokeWidth=1;fontSize=11;direction=west;" vertex="1" parent="1">
          <mxGeometry x="994" y="152.5" width="21" height="11" as="geometry" />
        </mxCell>
        <mxCell id="7ok6oC4QqBGluofvjfyL-81" value="" style="verticalLabelPosition=bottom;html=1;verticalAlign=top;align=center;shape=mxgraph.floorplan.windowBow;strokeWidth=1;fontSize=11;direction=west;" vertex="1" parent="1">
          <mxGeometry x="1050" y="152.5" width="21" height="11" as="geometry" />
        </mxCell>
        <mxCell id="7ok6oC4QqBGluofvjfyL-82" value="" style="verticalLabelPosition=bottom;html=1;verticalAlign=top;align=center;shape=mxgraph.floorplan.windowBow;strokeWidth=1;fontSize=11;direction=east;" vertex="1" parent="1">
          <mxGeometry x="490" y="196.5" width="21" height="11" as="geometry" />
        </mxCell>
        <mxCell id="7ok6oC4QqBGluofvjfyL-83" value="" style="endArrow=none;html=1;rounded=0;" edge="1" parent="1">
          <mxGeometry width="50" height="50" relative="1" as="geometry">
            <mxPoint x="445" y="264" as="sourcePoint" />
            <mxPoint x="1257" y="264" as="targetPoint" />
          </mxGeometry>
        </mxCell>
        <mxCell id="7ok6oC4QqBGluofvjfyL-84" value="" style="endArrow=none;html=1;rounded=0;labelBackgroundColor=default;fontFamily=Helvetica;fontSize=11;fontColor=default;startSize=3;endSize=3;sourcePerimeterSpacing=0;strokeColor=default;shape=connector;jumpStyle=none;jumpSize=6;" edge="1" parent="1">
          <mxGeometry width="50" height="50" relative="1" as="geometry">
            <mxPoint x="1173" y="264" as="sourcePoint" />
            <mxPoint x="1256" y="264" as="targetPoint" />
            <Array as="points">
              <mxPoint x="1173" y="236" />
              <mxPoint x="1256" y="235.5" />
            </Array>
          </mxGeometry>
        </mxCell>
        <mxCell id="7ok6oC4QqBGluofvjfyL-85" value="" style="verticalLabelPosition=bottom;html=1;verticalAlign=top;align=center;shape=mxgraph.floorplan.windowBow;strokeWidth=1;fontSize=11;direction=west;" vertex="1" parent="1">
          <mxGeometry x="490" y="263.5" width="21" height="11" as="geometry" />
        </mxCell>
        <mxCell id="7ok6oC4QqBGluofvjfyL-86" value="" style="verticalLabelPosition=bottom;html=1;verticalAlign=top;align=center;shape=mxgraph.floorplan.windowBow;strokeWidth=1;fontSize=11;direction=east;" vertex="1" parent="1">
          <mxGeometry x="546" y="253.5" width="21" height="11" as="geometry" />
        </mxCell>
        <mxCell id="7ok6oC4QqBGluofvjfyL-87" value="" style="verticalLabelPosition=bottom;html=1;verticalAlign=top;align=center;shape=mxgraph.floorplan.windowBow;strokeWidth=1;fontSize=11;direction=west;" vertex="1" parent="1">
          <mxGeometry x="602" y="263.5" width="21" height="11" as="geometry" />
        </mxCell>
        <mxCell id="7ok6oC4QqBGluofvjfyL-88" value="" style="verticalLabelPosition=bottom;html=1;verticalAlign=top;align=center;shape=mxgraph.floorplan.windowBow;strokeWidth=1;fontSize=11;direction=west;" vertex="1" parent="1">
          <mxGeometry x="714" y="264.5" width="21" height="11" as="geometry" />
        </mxCell>
        <mxCell id="7ok6oC4QqBGluofvjfyL-89" value="" style="verticalLabelPosition=bottom;html=1;verticalAlign=top;align=center;shape=mxgraph.floorplan.windowBow;strokeWidth=1;fontSize=11;direction=west;" vertex="1" parent="1">
          <mxGeometry x="770" y="264.5" width="21" height="11" as="geometry" />
        </mxCell>
        <mxCell id="7ok6oC4QqBGluofvjfyL-90" value="" style="verticalLabelPosition=bottom;html=1;verticalAlign=top;align=center;shape=mxgraph.floorplan.windowBow;strokeWidth=1;fontSize=11;direction=west;" vertex="1" parent="1">
          <mxGeometry x="826" y="264.5" width="21" height="11" as="geometry" />
        </mxCell>
        <mxCell id="7ok6oC4QqBGluofvjfyL-91" value="" style="verticalLabelPosition=bottom;html=1;verticalAlign=top;align=center;shape=mxgraph.floorplan.windowBow;strokeWidth=1;fontSize=11;direction=west;" vertex="1" parent="1">
          <mxGeometry x="882" y="264.5" width="21" height="11" as="geometry" />
        </mxCell>
        <mxCell id="7ok6oC4QqBGluofvjfyL-92" value="" style="verticalLabelPosition=bottom;html=1;verticalAlign=top;align=center;shape=mxgraph.floorplan.windowBow;strokeWidth=1;fontSize=11;direction=east;" vertex="1" parent="1">
          <mxGeometry x="714" y="295.5" width="21" height="11" as="geometry" />
        </mxCell>
        <mxCell id="7ok6oC4QqBGluofvjfyL-93" value="" style="endArrow=none;html=1;rounded=0;" edge="1" parent="1">
          <mxGeometry width="50" height="50" relative="1" as="geometry">
            <mxPoint x="445" y="348" as="sourcePoint" />
            <mxPoint x="1257" y="348" as="targetPoint" />
          </mxGeometry>
        </mxCell>
        <mxCell id="7ok6oC4QqBGluofvjfyL-94" value="" style="endArrow=none;html=1;rounded=0;labelBackgroundColor=default;fontFamily=Helvetica;fontSize=11;fontColor=default;startSize=3;endSize=3;sourcePerimeterSpacing=0;strokeColor=default;shape=connector;jumpStyle=none;jumpSize=6;" edge="1" parent="1">
          <mxGeometry width="50" height="50" relative="1" as="geometry">
            <mxPoint x="1192.9999999999998" y="346.5" as="sourcePoint" />
            <mxPoint x="1256.0000000000002" y="347" as="targetPoint" />
            <Array as="points">
              <mxPoint x="1193" y="325.5" />
              <mxPoint x="1256" y="325.5" />
            </Array>
          </mxGeometry>
        </mxCell>
        <mxCell id="7ok6oC4QqBGluofvjfyL-95" value="" style="verticalLabelPosition=bottom;html=1;verticalAlign=top;align=center;shape=mxgraph.floorplan.windowBow;strokeWidth=1;fontSize=11;direction=east;" vertex="1" parent="1">
          <mxGeometry x="546" y="336.5" width="21" height="11" as="geometry" />
        </mxCell>
        <mxCell id="7ok6oC4QqBGluofvjfyL-96" value="" style="verticalLabelPosition=bottom;html=1;verticalAlign=top;align=center;shape=mxgraph.floorplan.windowBow;strokeWidth=1;fontSize=11;direction=west;" vertex="1" parent="1">
          <mxGeometry x="714" y="347.5" width="21" height="11" as="geometry" />
        </mxCell>
        <mxCell id="7ok6oC4QqBGluofvjfyL-97" value="" style="verticalLabelPosition=bottom;html=1;verticalAlign=top;align=center;shape=mxgraph.floorplan.windowBow;strokeWidth=1;fontSize=11;direction=east;" vertex="1" parent="1">
          <mxGeometry x="714" y="379.5" width="21" height="11" as="geometry" />
        </mxCell>
        <mxCell id="7ok6oC4QqBGluofvjfyL-98" value="" style="verticalLabelPosition=bottom;html=1;verticalAlign=top;align=center;shape=mxgraph.floorplan.windowBow;strokeWidth=1;fontSize=11;direction=west;" vertex="1" parent="1">
          <mxGeometry x="826" y="348.5" width="21" height="11" as="geometry" />
        </mxCell>
        <mxCell id="7ok6oC4QqBGluofvjfyL-99" value="" style="endArrow=none;html=1;rounded=0;" edge="1" parent="1">
          <mxGeometry width="50" height="50" relative="1" as="geometry">
            <mxPoint x="445" y="431.9999999999999" as="sourcePoint" />
            <mxPoint x="1257" y="431.9999999999999" as="targetPoint" />
          </mxGeometry>
        </mxCell>
        <mxCell id="7ok6oC4QqBGluofvjfyL-100" value="" style="verticalLabelPosition=bottom;html=1;verticalAlign=top;align=center;shape=mxgraph.floorplan.windowBow;strokeWidth=1;fontSize=11;direction=east;" vertex="1" parent="1">
          <mxGeometry x="490" y="420.5" width="21" height="11" as="geometry" />
        </mxCell>
        <mxCell id="7ok6oC4QqBGluofvjfyL-101" value="" style="verticalLabelPosition=bottom;html=1;verticalAlign=top;align=center;shape=mxgraph.floorplan.windowBow;strokeWidth=1;fontSize=11;direction=west;" vertex="1" parent="1">
          <mxGeometry x="546" y="431.5" width="21" height="11" as="geometry" />
        </mxCell>
        <mxCell id="7ok6oC4QqBGluofvjfyL-102" value="" style="endArrow=none;html=1;rounded=0;" edge="1" parent="1">
          <mxGeometry width="50" height="50" relative="1" as="geometry">
            <mxPoint x="445" y="486.9999999999998" as="sourcePoint" />
            <mxPoint x="1257" y="486.9999999999998" as="targetPoint" />
          </mxGeometry>
        </mxCell>
        <mxCell id="7ok6oC4QqBGluofvjfyL-103" value="" style="endArrow=none;html=1;rounded=0;labelBackgroundColor=default;fontFamily=Helvetica;fontSize=11;fontColor=default;startSize=3;endSize=3;sourcePerimeterSpacing=0;strokeColor=default;shape=connector;jumpStyle=none;jumpSize=6;" edge="1" parent="1">
          <mxGeometry width="50" height="50" relative="1" as="geometry">
            <mxPoint x="1192.9999999999998" y="485.5" as="sourcePoint" />
            <mxPoint x="1256.0000000000002" y="486.0000000000001" as="targetPoint" />
            <Array as="points">
              <mxPoint x="1193" y="464.5" />
              <mxPoint x="1256" y="464.5" />
            </Array>
          </mxGeometry>
        </mxCell>
        <mxCell id="7ok6oC4QqBGluofvjfyL-104" value="" style="verticalLabelPosition=bottom;html=1;verticalAlign=top;align=center;shape=mxgraph.floorplan.windowBow;strokeWidth=1;fontSize=11;direction=east;" vertex="1" parent="1">
          <mxGeometry x="490" y="475.5" width="21" height="11" as="geometry" />
        </mxCell>
        <mxCell id="7ok6oC4QqBGluofvjfyL-105" value="" style="verticalLabelPosition=bottom;html=1;verticalAlign=top;align=center;shape=mxgraph.floorplan.windowBow;strokeWidth=1;fontSize=11;direction=east;" vertex="1" parent="1">
          <mxGeometry x="546" y="475.5" width="21" height="11" as="geometry" />
        </mxCell>
        <mxCell id="7ok6oC4QqBGluofvjfyL-106" value="" style="endArrow=none;html=1;rounded=0;" edge="1" parent="1">
          <mxGeometry width="50" height="50" relative="1" as="geometry">
            <mxPoint x="445" y="571.9999999999998" as="sourcePoint" />
            <mxPoint x="1257" y="571.9999999999998" as="targetPoint" />
          </mxGeometry>
        </mxCell>
        <mxCell id="7ok6oC4QqBGluofvjfyL-107" value="" style="verticalLabelPosition=bottom;html=1;verticalAlign=top;align=center;shape=mxgraph.floorplan.windowBow;strokeWidth=1;fontSize=11;direction=east;" vertex="1" parent="1">
          <mxGeometry x="490" y="560.5" width="21" height="11" as="geometry" />
        </mxCell>
        <mxCell id="7ok6oC4QqBGluofvjfyL-108" value="" style="verticalLabelPosition=bottom;html=1;verticalAlign=top;align=center;shape=mxgraph.floorplan.windowBow;strokeWidth=1;fontSize=11;direction=west;" vertex="1" parent="1">
          <mxGeometry x="546" y="572" width="21" height="11" as="geometry" />
        </mxCell>
        <mxCell id="7ok6oC4QqBGluofvjfyL-109" value="" style="verticalLabelPosition=bottom;html=1;verticalAlign=top;align=center;shape=mxgraph.floorplan.windowBow;strokeWidth=1;fontSize=11;direction=east;" vertex="1" parent="1">
          <mxGeometry x="602" y="560.5" width="21" height="11" as="geometry" />
        </mxCell>
        <mxCell id="7ok6oC4QqBGluofvjfyL-110" value="" style="verticalLabelPosition=bottom;html=1;verticalAlign=top;align=center;shape=mxgraph.floorplan.windowBow;strokeWidth=1;fontSize=11;direction=east;" vertex="1" parent="1">
          <mxGeometry x="658" y="560.5" width="21" height="11" as="geometry" />
        </mxCell>
        <mxCell id="7ok6oC4QqBGluofvjfyL-111" value="" style="endArrow=none;html=1;rounded=0;" edge="1" parent="1">
          <mxGeometry width="50" height="50" relative="1" as="geometry">
            <mxPoint x="445" y="627.9999999999998" as="sourcePoint" />
            <mxPoint x="1257" y="627.9999999999998" as="targetPoint" />
          </mxGeometry>
        </mxCell>
        <mxCell id="7ok6oC4QqBGluofvjfyL-112" value="" style="endArrow=none;html=1;rounded=0;labelBackgroundColor=default;fontFamily=Helvetica;fontSize=11;fontColor=default;startSize=3;endSize=3;sourcePerimeterSpacing=0;strokeColor=default;shape=connector;jumpStyle=none;jumpSize=6;" edge="1" parent="1">
          <mxGeometry width="50" height="50" relative="1" as="geometry">
            <mxPoint x="1192.9999999999998" y="626.5" as="sourcePoint" />
            <mxPoint x="1256.0000000000002" y="627" as="targetPoint" />
            <Array as="points">
              <mxPoint x="1193" y="605.5" />
              <mxPoint x="1256" y="605.5" />
            </Array>
          </mxGeometry>
        </mxCell>
        <mxCell id="7ok6oC4QqBGluofvjfyL-113" value="" style="verticalLabelPosition=bottom;html=1;verticalAlign=top;align=center;shape=mxgraph.floorplan.windowBow;strokeWidth=1;fontSize=11;direction=east;" vertex="1" parent="1">
          <mxGeometry x="546" y="616.5" width="21" height="11" as="geometry" />
        </mxCell>
        <mxCell id="7ok6oC4QqBGluofvjfyL-114" value="" style="verticalLabelPosition=bottom;html=1;verticalAlign=top;align=center;shape=mxgraph.floorplan.windowBow;strokeWidth=1;fontSize=11;direction=east;" vertex="1" parent="1">
          <mxGeometry x="491" y="616.5" width="21" height="11" as="geometry" />
        </mxCell>
        <mxCell id="7ok6oC4QqBGluofvjfyL-115" value="" style="endArrow=none;html=1;rounded=0;" edge="1" parent="1">
          <mxGeometry width="50" height="50" relative="1" as="geometry">
            <mxPoint x="445" y="711.9999999999998" as="sourcePoint" />
            <mxPoint x="1257" y="711.9999999999998" as="targetPoint" />
          </mxGeometry>
        </mxCell>
        <mxCell id="7ok6oC4QqBGluofvjfyL-116" value="" style="verticalLabelPosition=bottom;html=1;verticalAlign=top;align=center;shape=mxgraph.floorplan.windowBow;strokeWidth=1;fontSize=11;direction=east;" vertex="1" parent="1">
          <mxGeometry x="490" y="700.5" width="21" height="11" as="geometry" />
        </mxCell>
        <mxCell id="7ok6oC4QqBGluofvjfyL-117" value="" style="verticalLabelPosition=bottom;html=1;verticalAlign=top;align=center;shape=mxgraph.floorplan.windowBow;strokeWidth=1;fontSize=11;direction=west;" vertex="1" parent="1">
          <mxGeometry x="546" y="712" width="21" height="11" as="geometry" />
        </mxCell>
        <mxCell id="7ok6oC4QqBGluofvjfyL-118" value="" style="verticalLabelPosition=bottom;html=1;verticalAlign=top;align=center;shape=mxgraph.floorplan.windowBow;strokeWidth=1;fontSize=11;direction=east;" vertex="1" parent="1">
          <mxGeometry x="602" y="700.5" width="21" height="11" as="geometry" />
        </mxCell>
        <mxCell id="7ok6oC4QqBGluofvjfyL-119" value="" style="verticalLabelPosition=bottom;html=1;verticalAlign=top;align=center;shape=mxgraph.floorplan.windowBow;strokeWidth=1;fontSize=11;direction=west;" vertex="1" parent="1">
          <mxGeometry x="658" y="712" width="21" height="11" as="geometry" />
        </mxCell>
        <mxCell id="7ok6oC4QqBGluofvjfyL-120" value="" style="endArrow=none;html=1;rounded=0;" edge="1" parent="1">
          <mxGeometry width="50" height="50" relative="1" as="geometry">
            <mxPoint x="445" y="767.9999999999998" as="sourcePoint" />
            <mxPoint x="1257" y="767.9999999999998" as="targetPoint" />
          </mxGeometry>
        </mxCell>
        <mxCell id="7ok6oC4QqBGluofvjfyL-121" value="" style="endArrow=none;html=1;rounded=0;labelBackgroundColor=default;fontFamily=Helvetica;fontSize=11;fontColor=default;startSize=3;endSize=3;sourcePerimeterSpacing=0;strokeColor=default;shape=connector;jumpStyle=none;jumpSize=6;" edge="1" parent="1">
          <mxGeometry width="50" height="50" relative="1" as="geometry">
            <mxPoint x="1192.9999999999998" y="766.5" as="sourcePoint" />
            <mxPoint x="1256.0000000000002" y="767" as="targetPoint" />
            <Array as="points">
              <mxPoint x="1193" y="745.5" />
              <mxPoint x="1256" y="745.5" />
            </Array>
          </mxGeometry>
        </mxCell>
        <mxCell id="7ok6oC4QqBGluofvjfyL-122" value="" style="verticalLabelPosition=bottom;html=1;verticalAlign=top;align=center;shape=mxgraph.floorplan.windowBow;strokeWidth=1;fontSize=11;direction=east;" vertex="1" parent="1">
          <mxGeometry x="546" y="756.5" width="21" height="11" as="geometry" />
        </mxCell>
        <mxCell id="7ok6oC4QqBGluofvjfyL-123" value="" style="verticalLabelPosition=bottom;html=1;verticalAlign=top;align=center;shape=mxgraph.floorplan.windowBow;strokeWidth=1;fontSize=11;direction=east;" vertex="1" parent="1">
          <mxGeometry x="491" y="756.5" width="21" height="11" as="geometry" />
        </mxCell>
        <mxCell id="7ok6oC4QqBGluofvjfyL-124" value="" style="endArrow=none;html=1;rounded=0;" edge="1" parent="1">
          <mxGeometry width="50" height="50" relative="1" as="geometry">
            <mxPoint x="445" y="851.9999999999998" as="sourcePoint" />
            <mxPoint x="1257" y="851.9999999999998" as="targetPoint" />
          </mxGeometry>
        </mxCell>
        <mxCell id="7ok6oC4QqBGluofvjfyL-125" value="" style="endArrow=none;html=1;rounded=0;labelBackgroundColor=default;fontFamily=Helvetica;fontSize=11;fontColor=default;startSize=3;endSize=3;sourcePerimeterSpacing=0;strokeColor=default;shape=connector;jumpStyle=none;jumpSize=6;" edge="1" parent="1">
          <mxGeometry width="50" height="50" relative="1" as="geometry">
            <mxPoint x="1192.9999999999998" y="850.5" as="sourcePoint" />
            <mxPoint x="1256.0000000000002" y="851" as="targetPoint" />
            <Array as="points">
              <mxPoint x="1193" y="829.5" />
              <mxPoint x="1256" y="829.5" />
            </Array>
          </mxGeometry>
        </mxCell>
        <mxCell id="7ok6oC4QqBGluofvjfyL-126" value="" style="verticalLabelPosition=bottom;html=1;verticalAlign=top;align=center;shape=mxgraph.floorplan.windowBow;strokeWidth=1;fontSize=11;direction=east;" vertex="1" parent="1">
          <mxGeometry x="490" y="840.5" width="21" height="11" as="geometry" />
        </mxCell>
        <mxCell id="7ok6oC4QqBGluofvjfyL-127" value="" style="verticalLabelPosition=bottom;html=1;verticalAlign=top;align=center;shape=mxgraph.floorplan.windowBow;strokeWidth=1;fontSize=11;direction=west;" vertex="1" parent="1">
          <mxGeometry x="546" y="853" width="21" height="11" as="geometry" />
        </mxCell>
        <mxCell id="7ok6oC4QqBGluofvjfyL-128" value="" style="verticalLabelPosition=bottom;html=1;verticalAlign=top;align=center;shape=mxgraph.floorplan.windowBow;strokeWidth=1;fontSize=11;direction=east;" vertex="1" parent="1">
          <mxGeometry x="602" y="840.5" width="21" height="11" as="geometry" />
        </mxCell>
        <mxCell id="7ok6oC4QqBGluofvjfyL-129" value="" style="verticalLabelPosition=bottom;html=1;verticalAlign=top;align=center;shape=mxgraph.floorplan.windowBow;strokeWidth=1;fontSize=11;direction=east;" vertex="1" parent="1">
          <mxGeometry x="658" y="840.5" width="21" height="11" as="geometry" />
        </mxCell>
        <mxCell id="7ok6oC4QqBGluofvjfyL-130" value="" style="endArrow=none;html=1;rounded=0;" edge="1" parent="1">
          <mxGeometry width="50" height="50" relative="1" as="geometry">
            <mxPoint x="445" y="907.9999999999998" as="sourcePoint" />
            <mxPoint x="1257" y="907.9999999999998" as="targetPoint" />
          </mxGeometry>
        </mxCell>
        <mxCell id="7ok6oC4QqBGluofvjfyL-131" value="" style="verticalLabelPosition=bottom;html=1;verticalAlign=top;align=center;shape=mxgraph.floorplan.windowBow;strokeWidth=1;fontSize=11;direction=east;" vertex="1" parent="1">
          <mxGeometry x="490" y="896.5" width="21" height="11" as="geometry" />
        </mxCell>
        <mxCell id="7ok6oC4QqBGluofvjfyL-132" value="" style="verticalLabelPosition=bottom;html=1;verticalAlign=top;align=center;shape=mxgraph.floorplan.windowBow;strokeWidth=1;fontSize=11;direction=west;" vertex="1" parent="1">
          <mxGeometry x="546" y="908" width="21" height="11" as="geometry" />
        </mxCell>
        <mxCell id="7ok6oC4QqBGluofvjfyL-133" value="" style="verticalLabelPosition=bottom;html=1;verticalAlign=top;align=center;shape=mxgraph.floorplan.windowBow;strokeWidth=1;fontSize=11;direction=east;" vertex="1" parent="1">
          <mxGeometry x="602" y="896.5" width="21" height="11" as="geometry" />
        </mxCell>
        <mxCell id="7ok6oC4QqBGluofvjfyL-134" value="" style="verticalLabelPosition=bottom;html=1;verticalAlign=top;align=center;shape=mxgraph.floorplan.windowBow;strokeWidth=1;fontSize=11;direction=west;" vertex="1" parent="1">
          <mxGeometry x="658" y="908" width="21" height="11" as="geometry" />
        </mxCell>
        <mxCell id="7ok6oC4QqBGluofvjfyL-135" value="" style="verticalLabelPosition=bottom;html=1;verticalAlign=top;align=center;shape=mxgraph.floorplan.windowBow;strokeWidth=1;fontSize=11;direction=west;" vertex="1" parent="1">
          <mxGeometry x="714" y="908" width="21" height="11" as="geometry" />
        </mxCell>
        <mxCell id="7ok6oC4QqBGluofvjfyL-136" value="" style="verticalLabelPosition=bottom;html=1;verticalAlign=top;align=center;shape=mxgraph.floorplan.windowBow;strokeWidth=1;fontSize=11;direction=east;" vertex="1" parent="1">
          <mxGeometry x="826" y="896.5" width="21" height="11" as="geometry" />
        </mxCell>
        <mxCell id="7ok6oC4QqBGluofvjfyL-137" value="" style="verticalLabelPosition=bottom;html=1;verticalAlign=top;align=center;shape=mxgraph.floorplan.windowBow;strokeWidth=1;fontSize=11;direction=east;" vertex="1" parent="1">
          <mxGeometry x="938" y="896.5" width="21" height="11" as="geometry" />
        </mxCell>
        <mxCell id="7ok6oC4QqBGluofvjfyL-138" value="" style="verticalLabelPosition=bottom;html=1;verticalAlign=top;align=center;shape=mxgraph.floorplan.windowBow;strokeWidth=1;fontSize=11;direction=west;" vertex="1" parent="1">
          <mxGeometry x="994" y="908" width="21" height="11" as="geometry" />
        </mxCell>
        <mxCell id="7ok6oC4QqBGluofvjfyL-139" value="" style="verticalLabelPosition=bottom;html=1;verticalAlign=top;align=center;shape=mxgraph.floorplan.windowBow;strokeWidth=1;fontSize=11;direction=east;" vertex="1" parent="1">
          <mxGeometry x="1050" y="896.5" width="21" height="11" as="geometry" />
        </mxCell>
        <mxCell id="7ok6oC4QqBGluofvjfyL-140" value="" style="endArrow=none;html=1;rounded=0;" edge="1" parent="1">
          <mxGeometry width="50" height="50" relative="1" as="geometry">
            <mxPoint x="445" y="963.9999999999998" as="sourcePoint" />
            <mxPoint x="1257" y="963.9999999999998" as="targetPoint" />
          </mxGeometry>
        </mxCell>
        <mxCell id="7ok6oC4QqBGluofvjfyL-141" value="" style="endArrow=none;html=1;rounded=0;labelBackgroundColor=default;fontFamily=Helvetica;fontSize=11;fontColor=default;startSize=3;endSize=3;sourcePerimeterSpacing=0;strokeColor=default;shape=connector;jumpStyle=none;jumpSize=6;" edge="1" parent="1">
          <mxGeometry width="50" height="50" relative="1" as="geometry">
            <mxPoint x="1192.9999999999998" y="962.5" as="sourcePoint" />
            <mxPoint x="1256.0000000000002" y="963" as="targetPoint" />
            <Array as="points">
              <mxPoint x="1193" y="941.5" />
              <mxPoint x="1256" y="941.5" />
            </Array>
          </mxGeometry>
        </mxCell>
        <mxCell id="7ok6oC4QqBGluofvjfyL-142" value="" style="verticalLabelPosition=bottom;html=1;verticalAlign=top;align=center;shape=mxgraph.floorplan.windowBow;strokeWidth=1;fontSize=11;direction=east;" vertex="1" parent="1">
          <mxGeometry x="546" y="952.5" width="21" height="11" as="geometry" />
        </mxCell>
        <mxCell id="7ok6oC4QqBGluofvjfyL-143" value="" style="verticalLabelPosition=bottom;html=1;verticalAlign=top;align=center;shape=mxgraph.floorplan.windowBow;strokeWidth=1;fontSize=11;direction=east;" vertex="1" parent="1">
          <mxGeometry x="490" y="952.5" width="21" height="11" as="geometry" />
        </mxCell>
        <mxCell id="7ok6oC4QqBGluofvjfyL-144" value="TR" style="text;html=1;strokeColor=none;fillColor=none;align=center;verticalAlign=middle;whiteSpace=wrap;rounded=0;fontFamily=Helvetica;fontSize=11;fontColor=default;" vertex="1" parent="1">
          <mxGeometry x="482" y="1026" width="40" height="9" as="geometry" />
        </mxCell>
        <mxCell id="7ok6oC4QqBGluofvjfyL-145" value="DIR" style="text;html=1;strokeColor=none;fillColor=none;align=center;verticalAlign=middle;whiteSpace=wrap;rounded=0;fontFamily=Helvetica;fontSize=11;fontColor=default;" vertex="1" parent="1">
          <mxGeometry x="538" y="1027" width="40" height="8" as="geometry" />
        </mxCell>
        <mxCell id="7ok6oC4QqBGluofvjfyL-146" value="FP3.RR" style="text;html=1;strokeColor=none;fillColor=none;align=center;verticalAlign=middle;whiteSpace=wrap;rounded=0;fontFamily=Helvetica;fontSize=11;fontColor=default;" vertex="1" parent="1">
          <mxGeometry x="540" y="1083" width="40" height="9" as="geometry" />
        </mxCell>
        <mxCell id="7ok6oC4QqBGluofvjfyL-147" value="FP3" style="text;html=1;strokeColor=none;fillColor=none;align=center;verticalAlign=middle;whiteSpace=wrap;rounded=0;fontFamily=Helvetica;fontSize=11;fontColor=default;" vertex="1" parent="1">
          <mxGeometry x="1204" y="1089" width="47" height="13" as="geometry" />
        </mxCell>
        <mxCell id="7ok6oC4QqBGluofvjfyL-148" value="FP3.AR" style="text;html=1;strokeColor=none;fillColor=none;align=center;verticalAlign=middle;whiteSpace=wrap;rounded=0;fontFamily=Helvetica;fontSize=11;fontColor=default;" vertex="1" parent="1">
          <mxGeometry x="479" y="1083" width="47" height="8" as="geometry" />
        </mxCell>
        <mxCell id="7ok6oC4QqBGluofvjfyL-149" value="BL1" style="text;html=1;strokeColor=none;fillColor=none;align=center;verticalAlign=middle;whiteSpace=wrap;rounded=0;fontFamily=Helvetica;fontSize=11;fontColor=default;" vertex="1" parent="1">
          <mxGeometry x="595" y="1026" width="40" height="10" as="geometry" />
        </mxCell>
        <mxCell id="7ok6oC4QqBGluofvjfyL-150" value="RLMR-M" style="text;html=1;strokeColor=none;fillColor=none;align=center;verticalAlign=middle;whiteSpace=wrap;rounded=0;fontFamily=Helvetica;fontSize=11;fontColor=default;" vertex="1" parent="1">
          <mxGeometry x="644" y="1027" width="52" height="9" as="geometry" />
        </mxCell>
        <mxCell id="7ok6oC4QqBGluofvjfyL-151" value="RLMRA-RR" style="text;html=1;strokeColor=none;fillColor=none;align=center;verticalAlign=middle;whiteSpace=wrap;rounded=0;fontFamily=Helvetica;fontSize=11;fontColor=default;" vertex="1" parent="1">
          <mxGeometry x="696" y="1027" width="68" height="9" as="geometry" />
        </mxCell>
        <mxCell id="7ok6oC4QqBGluofvjfyL-152" value="EH3" style="text;html=1;strokeColor=none;fillColor=none;align=center;verticalAlign=middle;whiteSpace=wrap;rounded=0;fontFamily=Helvetica;fontSize=11;fontColor=default;" vertex="1" parent="1">
          <mxGeometry x="819" y="1026" width="40" height="9" as="geometry" />
        </mxCell>
        <mxCell id="7ok6oC4QqBGluofvjfyL-153" value="FP1" style="text;html=1;strokeColor=none;fillColor=none;align=center;verticalAlign=middle;whiteSpace=wrap;rounded=0;fontFamily=Helvetica;fontSize=11;fontColor=default;" vertex="1" parent="1">
          <mxGeometry x="930" y="1026" width="40" height="9" as="geometry" />
        </mxCell>
        <mxCell id="7ok6oC4QqBGluofvjfyL-154" value="EH2" style="text;html=1;strokeColor=none;fillColor=none;align=center;verticalAlign=middle;whiteSpace=wrap;rounded=0;fontFamily=Helvetica;fontSize=11;fontColor=default;" vertex="1" parent="1">
          <mxGeometry x="1042" y="1026" width="40" height="9" as="geometry" />
        </mxCell>
        <mxCell id="7ok6oC4QqBGluofvjfyL-155" value="EH1" style="text;html=1;strokeColor=none;fillColor=none;align=center;verticalAlign=middle;whiteSpace=wrap;rounded=0;fontFamily=Helvetica;fontSize=11;fontColor=default;" vertex="1" parent="1">
          <mxGeometry x="986" y="1027" width="40" height="8" as="geometry" />
        </mxCell>
        <mxCell id="7ok6oC4QqBGluofvjfyL-156" value="" style="endArrow=none;html=1;rounded=0;" edge="1" parent="1">
          <mxGeometry width="50" height="50" relative="1" as="geometry">
            <mxPoint x="446" y="1048.9999999999998" as="sourcePoint" />
            <mxPoint x="1258" y="1048.9999999999998" as="targetPoint" />
          </mxGeometry>
        </mxCell>
        <mxCell id="7ok6oC4QqBGluofvjfyL-157" value="" style="verticalLabelPosition=bottom;html=1;verticalAlign=top;align=center;shape=mxgraph.floorplan.windowBow;strokeWidth=1;fontSize=11;direction=east;" vertex="1" parent="1">
          <mxGeometry x="491" y="1037.5" width="21" height="11" as="geometry" />
        </mxCell>
        <mxCell id="7ok6oC4QqBGluofvjfyL-158" value="" style="verticalLabelPosition=bottom;html=1;verticalAlign=top;align=center;shape=mxgraph.floorplan.windowBow;strokeWidth=1;fontSize=11;direction=west;" vertex="1" parent="1">
          <mxGeometry x="547" y="1049" width="21" height="11" as="geometry" />
        </mxCell>
        <mxCell id="7ok6oC4QqBGluofvjfyL-159" value="" style="verticalLabelPosition=bottom;html=1;verticalAlign=top;align=center;shape=mxgraph.floorplan.windowBow;strokeWidth=1;fontSize=11;direction=east;" vertex="1" parent="1">
          <mxGeometry x="603" y="1037.5" width="21" height="11" as="geometry" />
        </mxCell>
        <mxCell id="7ok6oC4QqBGluofvjfyL-160" value="" style="verticalLabelPosition=bottom;html=1;verticalAlign=top;align=center;shape=mxgraph.floorplan.windowBow;strokeWidth=1;fontSize=11;direction=west;" vertex="1" parent="1">
          <mxGeometry x="659" y="1049" width="21" height="11" as="geometry" />
        </mxCell>
        <mxCell id="7ok6oC4QqBGluofvjfyL-161" value="" style="verticalLabelPosition=bottom;html=1;verticalAlign=top;align=center;shape=mxgraph.floorplan.windowBow;strokeWidth=1;fontSize=11;direction=west;" vertex="1" parent="1">
          <mxGeometry x="715" y="1049" width="21" height="11" as="geometry" />
        </mxCell>
        <mxCell id="7ok6oC4QqBGluofvjfyL-162" value="" style="verticalLabelPosition=bottom;html=1;verticalAlign=top;align=center;shape=mxgraph.floorplan.windowBow;strokeWidth=1;fontSize=11;direction=east;" vertex="1" parent="1">
          <mxGeometry x="827" y="1037.5" width="21" height="11" as="geometry" />
        </mxCell>
        <mxCell id="7ok6oC4QqBGluofvjfyL-163" value="" style="verticalLabelPosition=bottom;html=1;verticalAlign=top;align=center;shape=mxgraph.floorplan.windowBow;strokeWidth=1;fontSize=11;direction=east;" vertex="1" parent="1">
          <mxGeometry x="939" y="1037.5" width="21" height="11" as="geometry" />
        </mxCell>
        <mxCell id="7ok6oC4QqBGluofvjfyL-164" value="" style="verticalLabelPosition=bottom;html=1;verticalAlign=top;align=center;shape=mxgraph.floorplan.windowBow;strokeWidth=1;fontSize=11;direction=east;" vertex="1" parent="1">
          <mxGeometry x="995" y="1038" width="21" height="11" as="geometry" />
        </mxCell>
        <mxCell id="7ok6oC4QqBGluofvjfyL-165" value="" style="verticalLabelPosition=bottom;html=1;verticalAlign=top;align=center;shape=mxgraph.floorplan.windowBow;strokeWidth=1;fontSize=11;direction=west;" vertex="1" parent="1">
          <mxGeometry x="1051" y="1048.5" width="21" height="11" as="geometry" />
        </mxCell>
        <mxCell id="7ok6oC4QqBGluofvjfyL-166" value="" style="endArrow=none;html=1;rounded=0;" edge="1" parent="1">
          <mxGeometry width="50" height="50" relative="1" as="geometry">
            <mxPoint x="446" y="1104.9999999999998" as="sourcePoint" />
            <mxPoint x="1258" y="1104.9999999999998" as="targetPoint" />
          </mxGeometry>
        </mxCell>
        <mxCell id="7ok6oC4QqBGluofvjfyL-167" value="" style="endArrow=none;html=1;rounded=0;labelBackgroundColor=default;fontFamily=Helvetica;fontSize=11;fontColor=default;startSize=3;endSize=3;sourcePerimeterSpacing=0;strokeColor=default;shape=connector;jumpStyle=none;jumpSize=6;" edge="1" parent="1">
          <mxGeometry width="50" height="50" relative="1" as="geometry">
            <mxPoint x="1193.9999999999998" y="1103.5" as="sourcePoint" />
            <mxPoint x="1257.0000000000002" y="1104" as="targetPoint" />
            <Array as="points">
              <mxPoint x="1194" y="1082.5" />
              <mxPoint x="1257" y="1082.5" />
            </Array>
          </mxGeometry>
        </mxCell>
        <mxCell id="7ok6oC4QqBGluofvjfyL-168" value="" style="verticalLabelPosition=bottom;html=1;verticalAlign=top;align=center;shape=mxgraph.floorplan.windowBow;strokeWidth=1;fontSize=11;direction=east;" vertex="1" parent="1">
          <mxGeometry x="547" y="1093.5" width="21" height="11" as="geometry" />
        </mxCell>
        <mxCell id="7ok6oC4QqBGluofvjfyL-169" value="" style="verticalLabelPosition=bottom;html=1;verticalAlign=top;align=center;shape=mxgraph.floorplan.windowBow;strokeWidth=1;fontSize=11;direction=east;" vertex="1" parent="1">
          <mxGeometry x="490" y="1094.5" width="21" height="11" as="geometry" />
        </mxCell>
        <mxCell id="7ok6oC4QqBGluofvjfyL-170" value="" style="endArrow=none;html=1;rounded=0;" edge="1" parent="1">
          <mxGeometry width="50" height="50" relative="1" as="geometry">
            <mxPoint x="501" y="1217" as="sourcePoint" />
            <mxPoint x="613" y="1217" as="targetPoint" />
            <Array as="points">
              <mxPoint x="501" y="1259" />
              <mxPoint x="613" y="1259" />
            </Array>
          </mxGeometry>
        </mxCell>
        <mxCell id="7ok6oC4QqBGluofvjfyL-171" value="" style="endArrow=none;html=1;rounded=0;" edge="1" parent="1">
          <mxGeometry width="50" height="50" relative="1" as="geometry">
            <mxPoint x="445" y="1215.9999999999998" as="sourcePoint" />
            <mxPoint x="1256.9999999999998" y="1215.9999999999998" as="targetPoint" />
          </mxGeometry>
        </mxCell>
        <mxCell id="7ok6oC4QqBGluofvjfyL-172" value="" style="verticalLabelPosition=bottom;html=1;verticalAlign=top;align=center;shape=mxgraph.floorplan.windowBow;strokeWidth=1;fontSize=11;direction=east;" vertex="1" parent="1">
          <mxGeometry x="546" y="1204.5" width="21" height="11" as="geometry" />
        </mxCell>
        <mxCell id="7ok6oC4QqBGluofvjfyL-173" value="" style="verticalLabelPosition=bottom;html=1;verticalAlign=top;align=center;shape=mxgraph.floorplan.windowBow;strokeWidth=1;fontSize=11;direction=east;" vertex="1" parent="1">
          <mxGeometry x="546" y="1247.5" width="21" height="11" as="geometry" />
        </mxCell>
        <mxCell id="7ok6oC4QqBGluofvjfyL-174" value="YLMR-M" style="text;html=1;strokeColor=none;fillColor=none;align=center;verticalAlign=middle;whiteSpace=wrap;rounded=0;fontFamily=Helvetica;fontSize=11;fontColor=default;" vertex="1" parent="1">
          <mxGeometry x="533" y="1271" width="53" height="20" as="geometry" />
        </mxCell>
        <mxCell id="7ok6oC4QqBGluofvjfyL-175" value="YLMR-A" style="text;html=1;strokeColor=none;fillColor=none;align=center;verticalAlign=middle;whiteSpace=wrap;rounded=0;fontFamily=Helvetica;fontSize=11;fontColor=default;" vertex="1" parent="1">
          <mxGeometry x="531" y="1316" width="55" height="20" as="geometry" />
        </mxCell>
        <mxCell id="7ok6oC4QqBGluofvjfyL-176" value="" style="endArrow=none;html=1;rounded=0;" edge="1" parent="1">
          <mxGeometry width="50" height="50" relative="1" as="geometry">
            <mxPoint x="501" y="1300.9999999999998" as="sourcePoint" />
            <mxPoint x="613" y="1300.9999999999998" as="targetPoint" />
            <Array as="points">
              <mxPoint x="501" y="1343" />
              <mxPoint x="613" y="1343" />
            </Array>
          </mxGeometry>
        </mxCell>
        <mxCell id="7ok6oC4QqBGluofvjfyL-177" value="" style="endArrow=none;html=1;rounded=0;" edge="1" parent="1">
          <mxGeometry width="50" height="50" relative="1" as="geometry">
            <mxPoint x="445" y="1299.9999999999995" as="sourcePoint" />
            <mxPoint x="1256.9999999999995" y="1299.9999999999995" as="targetPoint" />
          </mxGeometry>
        </mxCell>
        <mxCell id="7ok6oC4QqBGluofvjfyL-178" value="" style="verticalLabelPosition=bottom;html=1;verticalAlign=top;align=center;shape=mxgraph.floorplan.windowBow;strokeWidth=1;fontSize=11;direction=east;" vertex="1" parent="1">
          <mxGeometry x="546" y="1288.5" width="21" height="11" as="geometry" />
        </mxCell>
        <mxCell id="7ok6oC4QqBGluofvjfyL-179" value="" style="verticalLabelPosition=bottom;html=1;verticalAlign=top;align=center;shape=mxgraph.floorplan.windowBow;strokeWidth=1;fontSize=11;direction=east;" vertex="1" parent="1">
          <mxGeometry x="546" y="1331.5" width="21" height="11" as="geometry" />
        </mxCell>
        <mxCell id="7ok6oC4QqBGluofvjfyL-180" value="GLMR-M" style="text;html=1;strokeColor=none;fillColor=none;align=center;verticalAlign=middle;whiteSpace=wrap;rounded=0;fontFamily=Helvetica;fontSize=11;fontColor=default;" vertex="1" parent="1">
          <mxGeometry x="533" y="1355" width="53" height="20" as="geometry" />
        </mxCell>
        <mxCell id="7ok6oC4QqBGluofvjfyL-181" value="GLMR-A" style="text;html=1;strokeColor=none;fillColor=none;align=center;verticalAlign=middle;whiteSpace=wrap;rounded=0;fontFamily=Helvetica;fontSize=11;fontColor=default;" vertex="1" parent="1">
          <mxGeometry x="531" y="1400" width="55" height="20" as="geometry" />
        </mxCell>
        <mxCell id="7ok6oC4QqBGluofvjfyL-182" value="" style="endArrow=none;html=1;rounded=0;" edge="1" parent="1">
          <mxGeometry width="50" height="50" relative="1" as="geometry">
            <mxPoint x="501" y="1384.9999999999995" as="sourcePoint" />
            <mxPoint x="613" y="1384.9999999999995" as="targetPoint" />
            <Array as="points">
              <mxPoint x="501" y="1427" />
              <mxPoint x="613" y="1427" />
            </Array>
          </mxGeometry>
        </mxCell>
        <mxCell id="7ok6oC4QqBGluofvjfyL-183" value="" style="endArrow=none;html=1;rounded=0;" edge="1" parent="1">
          <mxGeometry width="50" height="50" relative="1" as="geometry">
            <mxPoint x="445" y="1383.9999999999993" as="sourcePoint" />
            <mxPoint x="1256.9999999999995" y="1383.9999999999993" as="targetPoint" />
          </mxGeometry>
        </mxCell>
        <mxCell id="7ok6oC4QqBGluofvjfyL-184" value="" style="verticalLabelPosition=bottom;html=1;verticalAlign=top;align=center;shape=mxgraph.floorplan.windowBow;strokeWidth=1;fontSize=11;direction=east;" vertex="1" parent="1">
          <mxGeometry x="546" y="1372.5" width="21" height="11" as="geometry" />
        </mxCell>
        <mxCell id="7ok6oC4QqBGluofvjfyL-185" value="" style="verticalLabelPosition=bottom;html=1;verticalAlign=top;align=center;shape=mxgraph.floorplan.windowBow;strokeWidth=1;fontSize=11;direction=east;" vertex="1" parent="1">
          <mxGeometry x="546" y="1415.5" width="21" height="11" as="geometry" />
        </mxCell>
        <mxCell id="7ok6oC4QqBGluofvjfyL-186" value="GE1U.RR" style="text;html=1;strokeColor=none;fillColor=none;align=center;verticalAlign=middle;whiteSpace=wrap;rounded=0;fontFamily=Helvetica;fontSize=11;fontColor=default;" vertex="1" parent="1">
          <mxGeometry x="533" y="1468" width="53" height="20" as="geometry" />
        </mxCell>
        <mxCell id="7ok6oC4QqBGluofvjfyL-187" value="GE1U" style="text;html=1;strokeColor=none;fillColor=none;align=center;verticalAlign=middle;whiteSpace=wrap;rounded=0;fontFamily=Helvetica;fontSize=11;fontColor=default;" vertex="1" parent="1">
          <mxGeometry x="1202" y="1480" width="47" height="13" as="geometry" />
        </mxCell>
        <mxCell id="7ok6oC4QqBGluofvjfyL-188" value="GE1U.AR" style="text;html=1;strokeColor=none;fillColor=none;align=center;verticalAlign=middle;whiteSpace=wrap;rounded=0;fontFamily=Helvetica;fontSize=11;fontColor=default;" vertex="1" parent="1">
          <mxGeometry x="475" y="1468" width="55" height="20" as="geometry" />
        </mxCell>
        <mxCell id="7ok6oC4QqBGluofvjfyL-189" value="" style="endArrow=none;html=1;rounded=0;" edge="1" parent="1">
          <mxGeometry width="50" height="50" relative="1" as="geometry">
            <mxPoint x="445" y="1495.999999999999" as="sourcePoint" />
            <mxPoint x="1256.9999999999995" y="1495.999999999999" as="targetPoint" />
          </mxGeometry>
        </mxCell>
        <mxCell id="7ok6oC4QqBGluofvjfyL-190" value="" style="endArrow=none;html=1;rounded=0;labelBackgroundColor=default;fontFamily=Helvetica;fontSize=11;fontColor=default;startSize=3;endSize=3;sourcePerimeterSpacing=0;strokeColor=default;shape=connector;jumpStyle=none;jumpSize=6;" edge="1" parent="1">
          <mxGeometry width="50" height="50" relative="1" as="geometry">
            <mxPoint x="1192.9999999999998" y="1494.4999999999993" as="sourcePoint" />
            <mxPoint x="1256.0000000000005" y="1495" as="targetPoint" />
            <Array as="points">
              <mxPoint x="1193" y="1473.5" />
              <mxPoint x="1256" y="1473.5" />
            </Array>
          </mxGeometry>
        </mxCell>
        <mxCell id="7ok6oC4QqBGluofvjfyL-191" value="" style="verticalLabelPosition=bottom;html=1;verticalAlign=top;align=center;shape=mxgraph.floorplan.windowBow;strokeWidth=1;fontSize=11;direction=east;" vertex="1" parent="1">
          <mxGeometry x="546" y="1484.5" width="21" height="11" as="geometry" />
        </mxCell>
        <mxCell id="7ok6oC4QqBGluofvjfyL-192" value="" style="verticalLabelPosition=bottom;html=1;verticalAlign=top;align=center;shape=mxgraph.floorplan.windowBow;strokeWidth=1;fontSize=11;direction=east;" vertex="1" parent="1">
          <mxGeometry x="491" y="1484.5" width="21" height="11" as="geometry" />
        </mxCell>
        <mxCell id="7ok6oC4QqBGluofvjfyL-193" value="GEU.RR" style="text;html=1;strokeColor=none;fillColor=none;align=center;verticalAlign=middle;whiteSpace=wrap;rounded=0;fontFamily=Helvetica;fontSize=11;fontColor=default;" vertex="1" parent="1">
          <mxGeometry x="533" y="1524" width="53" height="20" as="geometry" />
        </mxCell>
        <mxCell id="7ok6oC4QqBGluofvjfyL-194" value="GEU" style="text;html=1;strokeColor=none;fillColor=none;align=center;verticalAlign=middle;whiteSpace=wrap;rounded=0;fontFamily=Helvetica;fontSize=11;fontColor=default;" vertex="1" parent="1">
          <mxGeometry x="1202" y="1536" width="47" height="13" as="geometry" />
        </mxCell>
        <mxCell id="7ok6oC4QqBGluofvjfyL-195" value="GEU.AR" style="text;html=1;strokeColor=none;fillColor=none;align=center;verticalAlign=middle;whiteSpace=wrap;rounded=0;fontFamily=Helvetica;fontSize=11;fontColor=default;" vertex="1" parent="1">
          <mxGeometry x="475" y="1524" width="55" height="20" as="geometry" />
        </mxCell>
        <mxCell id="7ok6oC4QqBGluofvjfyL-196" value="" style="endArrow=none;html=1;rounded=0;" edge="1" parent="1">
          <mxGeometry width="50" height="50" relative="1" as="geometry">
            <mxPoint x="445" y="1551.999999999999" as="sourcePoint" />
            <mxPoint x="1256.9999999999995" y="1551.999999999999" as="targetPoint" />
          </mxGeometry>
        </mxCell>
        <mxCell id="7ok6oC4QqBGluofvjfyL-197" value="" style="endArrow=none;html=1;rounded=0;labelBackgroundColor=default;fontFamily=Helvetica;fontSize=11;fontColor=default;startSize=3;endSize=3;sourcePerimeterSpacing=0;strokeColor=default;shape=connector;jumpStyle=none;jumpSize=6;" edge="1" parent="1">
          <mxGeometry width="50" height="50" relative="1" as="geometry">
            <mxPoint x="1192.9999999999998" y="1550.499999999999" as="sourcePoint" />
            <mxPoint x="1256.0000000000005" y="1551" as="targetPoint" />
            <Array as="points">
              <mxPoint x="1193" y="1529.5" />
              <mxPoint x="1256" y="1529.5" />
            </Array>
          </mxGeometry>
        </mxCell>
        <mxCell id="7ok6oC4QqBGluofvjfyL-198" value="" style="verticalLabelPosition=bottom;html=1;verticalAlign=top;align=center;shape=mxgraph.floorplan.windowBow;strokeWidth=1;fontSize=11;direction=east;" vertex="1" parent="1">
          <mxGeometry x="546" y="1540.5" width="21" height="11" as="geometry" />
        </mxCell>
        <mxCell id="7ok6oC4QqBGluofvjfyL-199" value="" style="verticalLabelPosition=bottom;html=1;verticalAlign=top;align=center;shape=mxgraph.floorplan.windowBow;strokeWidth=1;fontSize=11;direction=east;" vertex="1" parent="1">
          <mxGeometry x="491" y="1540.5" width="21" height="11" as="geometry" />
        </mxCell>
        <mxCell id="7ok6oC4QqBGluofvjfyL-200" value="GNU.RR" style="text;html=1;strokeColor=none;fillColor=none;align=center;verticalAlign=middle;whiteSpace=wrap;rounded=0;fontFamily=Helvetica;fontSize=11;fontColor=default;" vertex="1" parent="1">
          <mxGeometry x="533" y="1580" width="53" height="20" as="geometry" />
        </mxCell>
        <mxCell id="7ok6oC4QqBGluofvjfyL-201" value="GNU" style="text;html=1;strokeColor=none;fillColor=none;align=center;verticalAlign=middle;whiteSpace=wrap;rounded=0;fontFamily=Helvetica;fontSize=11;fontColor=default;" vertex="1" parent="1">
          <mxGeometry x="1202" y="1592" width="47" height="13" as="geometry" />
        </mxCell>
        <mxCell id="7ok6oC4QqBGluofvjfyL-202" value="GNU.AR" style="text;html=1;strokeColor=none;fillColor=none;align=center;verticalAlign=middle;whiteSpace=wrap;rounded=0;fontFamily=Helvetica;fontSize=11;fontColor=default;" vertex="1" parent="1">
          <mxGeometry x="474" y="1580" width="55" height="20" as="geometry" />
        </mxCell>
        <mxCell id="7ok6oC4QqBGluofvjfyL-203" value="" style="endArrow=none;html=1;rounded=0;" edge="1" parent="1">
          <mxGeometry width="50" height="50" relative="1" as="geometry">
            <mxPoint x="445" y="1607.999999999999" as="sourcePoint" />
            <mxPoint x="1256.9999999999995" y="1607.999999999999" as="targetPoint" />
          </mxGeometry>
        </mxCell>
        <mxCell id="7ok6oC4QqBGluofvjfyL-204" value="" style="endArrow=none;html=1;rounded=0;labelBackgroundColor=default;fontFamily=Helvetica;fontSize=11;fontColor=default;startSize=3;endSize=3;sourcePerimeterSpacing=0;strokeColor=default;shape=connector;jumpStyle=none;jumpSize=6;" edge="1" parent="1">
          <mxGeometry width="50" height="50" relative="1" as="geometry">
            <mxPoint x="1192.9999999999998" y="1606.499999999999" as="sourcePoint" />
            <mxPoint x="1256.0000000000005" y="1607" as="targetPoint" />
            <Array as="points">
              <mxPoint x="1193" y="1585.5" />
              <mxPoint x="1256" y="1585.5" />
            </Array>
          </mxGeometry>
        </mxCell>
        <mxCell id="7ok6oC4QqBGluofvjfyL-205" value="" style="verticalLabelPosition=bottom;html=1;verticalAlign=top;align=center;shape=mxgraph.floorplan.windowBow;strokeWidth=1;fontSize=11;direction=east;" vertex="1" parent="1">
          <mxGeometry x="546" y="1596.5" width="21" height="11" as="geometry" />
        </mxCell>
        <mxCell id="7ok6oC4QqBGluofvjfyL-206" value="" style="verticalLabelPosition=bottom;html=1;verticalAlign=top;align=center;shape=mxgraph.floorplan.windowBow;strokeWidth=1;fontSize=11;direction=east;" vertex="1" parent="1">
          <mxGeometry x="490" y="1596.5" width="21" height="11" as="geometry" />
        </mxCell>
        <mxCell id="7ok6oC4QqBGluofvjfyL-207" value="" style="endArrow=none;html=1;rounded=0;" edge="1" parent="1">
          <mxGeometry width="50" height="50" relative="1" as="geometry">
            <mxPoint x="445" y="1691.999999999999" as="sourcePoint" />
            <mxPoint x="1256.9999999999995" y="1691.999999999999" as="targetPoint" />
          </mxGeometry>
        </mxCell>
        <mxCell id="7ok6oC4QqBGluofvjfyL-208" value="" style="verticalLabelPosition=bottom;html=1;verticalAlign=top;align=center;shape=mxgraph.floorplan.windowBow;strokeWidth=1;fontSize=11;direction=east;" vertex="1" parent="1">
          <mxGeometry x="490" y="1680.5" width="21" height="11" as="geometry" />
        </mxCell>
        <mxCell id="7ok6oC4QqBGluofvjfyL-209" value="3" style="text;html=1;strokeColor=none;fillColor=none;align=center;verticalAlign=middle;whiteSpace=wrap;rounded=0;fontFamily=Helvetica;fontSize=11;fontColor=default;" vertex="1" parent="1">
          <mxGeometry x="420" y="246" width="21" height="16" as="geometry" />
        </mxCell>
        <mxCell id="7ok6oC4QqBGluofvjfyL-210" value="4" style="text;html=1;strokeColor=none;fillColor=none;align=center;verticalAlign=middle;whiteSpace=wrap;rounded=0;fontFamily=Helvetica;fontSize=11;fontColor=default;" vertex="1" parent="1">
          <mxGeometry x="420" y="330" width="21" height="16" as="geometry" />
        </mxCell>
        <mxCell id="7ok6oC4QqBGluofvjfyL-211" value="5" style="text;html=1;strokeColor=none;fillColor=none;align=center;verticalAlign=middle;whiteSpace=wrap;rounded=0;fontFamily=Helvetica;fontSize=11;fontColor=default;" vertex="1" parent="1">
          <mxGeometry x="420" y="415" width="21" height="16" as="geometry" />
        </mxCell>
        <mxCell id="7ok6oC4QqBGluofvjfyL-212" value="6" style="text;html=1;strokeColor=none;fillColor=none;align=center;verticalAlign=middle;whiteSpace=wrap;rounded=0;fontFamily=Helvetica;fontSize=11;fontColor=default;" vertex="1" parent="1">
          <mxGeometry x="420" y="470" width="21" height="16" as="geometry" />
        </mxCell>
        <mxCell id="7ok6oC4QqBGluofvjfyL-213" value="7" style="text;html=1;strokeColor=none;fillColor=none;align=center;verticalAlign=middle;whiteSpace=wrap;rounded=0;fontFamily=Helvetica;fontSize=11;fontColor=default;" vertex="1" parent="1">
          <mxGeometry x="420" y="555" width="21" height="16" as="geometry" />
        </mxCell>
        <mxCell id="7ok6oC4QqBGluofvjfyL-214" value="8" style="text;html=1;strokeColor=none;fillColor=none;align=center;verticalAlign=middle;whiteSpace=wrap;rounded=0;fontFamily=Helvetica;fontSize=11;fontColor=default;" vertex="1" parent="1">
          <mxGeometry x="420" y="610" width="21" height="16" as="geometry" />
        </mxCell>
        <mxCell id="7ok6oC4QqBGluofvjfyL-215" value="9" style="text;html=1;strokeColor=none;fillColor=none;align=center;verticalAlign=middle;whiteSpace=wrap;rounded=0;fontFamily=Helvetica;fontSize=11;fontColor=default;" vertex="1" parent="1">
          <mxGeometry x="420" y="694" width="21" height="16" as="geometry" />
        </mxCell>
        <mxCell id="7ok6oC4QqBGluofvjfyL-216" value="10" style="text;html=1;strokeColor=none;fillColor=none;align=center;verticalAlign=middle;whiteSpace=wrap;rounded=0;fontFamily=Helvetica;fontSize=11;fontColor=default;" vertex="1" parent="1">
          <mxGeometry x="420" y="750" width="21" height="16" as="geometry" />
        </mxCell>
        <mxCell id="7ok6oC4QqBGluofvjfyL-217" value="11" style="text;html=1;strokeColor=none;fillColor=none;align=center;verticalAlign=middle;whiteSpace=wrap;rounded=0;fontFamily=Helvetica;fontSize=11;fontColor=default;" vertex="1" parent="1">
          <mxGeometry x="420" y="834" width="21" height="16" as="geometry" />
        </mxCell>
        <mxCell id="7ok6oC4QqBGluofvjfyL-218" value="12" style="text;html=1;strokeColor=none;fillColor=none;align=center;verticalAlign=middle;whiteSpace=wrap;rounded=0;fontFamily=Helvetica;fontSize=11;fontColor=default;" vertex="1" parent="1">
          <mxGeometry x="420" y="890" width="21" height="16" as="geometry" />
        </mxCell>
        <mxCell id="7ok6oC4QqBGluofvjfyL-219" value="13" style="text;html=1;strokeColor=none;fillColor=none;align=center;verticalAlign=middle;whiteSpace=wrap;rounded=0;fontFamily=Helvetica;fontSize=11;fontColor=default;" vertex="1" parent="1">
          <mxGeometry x="420" y="946" width="21" height="16" as="geometry" />
        </mxCell>
        <mxCell id="7ok6oC4QqBGluofvjfyL-220" value="14" style="text;html=1;strokeColor=none;fillColor=none;align=center;verticalAlign=middle;whiteSpace=wrap;rounded=0;fontFamily=Helvetica;fontSize=11;fontColor=default;" vertex="1" parent="1">
          <mxGeometry x="420" y="1030" width="21" height="16" as="geometry" />
        </mxCell>
        <mxCell id="7ok6oC4QqBGluofvjfyL-221" value="15" style="text;html=1;strokeColor=none;fillColor=none;align=center;verticalAlign=middle;whiteSpace=wrap;rounded=0;fontFamily=Helvetica;fontSize=11;fontColor=default;" vertex="1" parent="1">
          <mxGeometry x="420" y="1086" width="21" height="16" as="geometry" />
        </mxCell>
        <mxCell id="7ok6oC4QqBGluofvjfyL-222" value="16" style="text;html=1;strokeColor=none;fillColor=none;align=center;verticalAlign=middle;whiteSpace=wrap;rounded=0;fontFamily=Helvetica;fontSize=11;fontColor=default;" vertex="1" parent="1">
          <mxGeometry x="420" y="1198" width="21" height="16" as="geometry" />
        </mxCell>
        <mxCell id="7ok6oC4QqBGluofvjfyL-223" value="17" style="text;html=1;strokeColor=none;fillColor=none;align=center;verticalAlign=middle;whiteSpace=wrap;rounded=0;fontFamily=Helvetica;fontSize=11;fontColor=default;" vertex="1" parent="1">
          <mxGeometry x="420" y="1282" width="21" height="16" as="geometry" />
        </mxCell>
        <mxCell id="7ok6oC4QqBGluofvjfyL-224" value="18" style="text;html=1;strokeColor=none;fillColor=none;align=center;verticalAlign=middle;whiteSpace=wrap;rounded=0;fontFamily=Helvetica;fontSize=11;fontColor=default;" vertex="1" parent="1">
          <mxGeometry x="420" y="1366" width="21" height="16" as="geometry" />
        </mxCell>
        <mxCell id="7ok6oC4QqBGluofvjfyL-225" value="19" style="text;html=1;strokeColor=none;fillColor=none;align=center;verticalAlign=middle;whiteSpace=wrap;rounded=0;fontFamily=Helvetica;fontSize=11;fontColor=default;" vertex="1" parent="1">
          <mxGeometry x="420" y="1478" width="21" height="16" as="geometry" />
        </mxCell>
        <mxCell id="7ok6oC4QqBGluofvjfyL-226" value="20" style="text;html=1;strokeColor=none;fillColor=none;align=center;verticalAlign=middle;whiteSpace=wrap;rounded=0;fontFamily=Helvetica;fontSize=11;fontColor=default;" vertex="1" parent="1">
          <mxGeometry x="420" y="1534" width="21" height="16" as="geometry" />
        </mxCell>
        <mxCell id="7ok6oC4QqBGluofvjfyL-227" value="21" style="text;html=1;strokeColor=none;fillColor=none;align=center;verticalAlign=middle;whiteSpace=wrap;rounded=0;fontFamily=Helvetica;fontSize=11;fontColor=default;" vertex="1" parent="1">
          <mxGeometry x="420" y="1590" width="21" height="16" as="geometry" />
        </mxCell>
        <mxCell id="7ok6oC4QqBGluofvjfyL-228" value="22" style="text;html=1;strokeColor=none;fillColor=none;align=center;verticalAlign=middle;whiteSpace=wrap;rounded=0;fontFamily=Helvetica;fontSize=11;fontColor=default;" vertex="1" parent="1">
          <mxGeometry x="420" y="1674" width="21" height="16" as="geometry" />
        </mxCell>
        <mxCell id="7ok6oC4QqBGluofvjfyL-229" value="&lt;font style=&quot;font-size: 10px;&quot;&gt;BL1.RR(100)&lt;/font&gt;" style="text;html=1;strokeColor=none;fillColor=none;align=center;verticalAlign=middle;whiteSpace=wrap;rounded=0;fontFamily=Helvetica;fontSize=11;fontColor=default;" vertex="1" parent="1">
          <mxGeometry x="1198" y="251" width="47" height="12" as="geometry" />
        </mxCell>
        <mxCell id="7ok6oC4QqBGluofvjfyL-230" value="BL1.AR" style="text;html=1;strokeColor=none;fillColor=none;align=center;verticalAlign=middle;whiteSpace=wrap;rounded=0;fontFamily=Helvetica;fontSize=11;fontColor=default;" vertex="1" parent="1">
          <mxGeometry x="483" y="320" width="40" height="17" as="geometry" />
        </mxCell>
        <mxCell id="7ok6oC4QqBGluofvjfyL-231" value="" style="verticalLabelPosition=bottom;html=1;verticalAlign=top;align=center;shape=mxgraph.floorplan.windowBow;strokeWidth=1;fontSize=11;direction=east;" vertex="1" parent="1">
          <mxGeometry x="491" y="336.5" width="21" height="11" as="geometry" />
        </mxCell>
        <mxCell id="7ok6oC4QqBGluofvjfyL-232" value="&lt;font style=&quot;font-size: 10px;&quot;&gt;PR.AR&lt;/font&gt;" style="text;html=1;strokeColor=none;fillColor=none;align=center;verticalAlign=middle;whiteSpace=wrap;rounded=0;fontFamily=Helvetica;fontSize=11;fontColor=default;" vertex="1" parent="1">
          <mxGeometry x="1194" y="125" width="47" height="12" as="geometry" />
        </mxCell>
        <mxCell id="7ok6oC4QqBGluofvjfyL-233" value="" style="endArrow=none;html=1;rounded=0;labelBackgroundColor=default;fontFamily=Helvetica;fontSize=11;fontColor=default;startSize=3;endSize=3;sourcePerimeterSpacing=0;strokeColor=default;shape=connector;jumpStyle=none;jumpSize=6;" edge="1" parent="1">
          <mxGeometry width="50" height="50" relative="1" as="geometry">
            <mxPoint x="1173" y="151" as="sourcePoint" />
            <mxPoint x="1256" y="151" as="targetPoint" />
            <Array as="points">
              <mxPoint x="1173" y="123" />
              <mxPoint x="1256" y="122.5" />
            </Array>
          </mxGeometry>
        </mxCell>
        <mxCell id="7ok6oC4QqBGluofvjfyL-234" value="&lt;font style=&quot;font-size: 10px;&quot;&gt;PR.RR&lt;/font&gt;" style="text;html=1;strokeColor=none;fillColor=none;align=center;verticalAlign=middle;whiteSpace=wrap;rounded=0;fontFamily=Helvetica;fontSize=11;fontColor=default;" vertex="1" parent="1">
          <mxGeometry x="1195" y="138" width="47" height="12" as="geometry" />
        </mxCell>
        <mxCell id="7ok6oC4QqBGluofvjfyL-237" value="&lt;font style=&quot;&quot;&gt;&lt;span style=&quot;font-size: 11px;&quot;&gt;(relay name).AR - 완동(time delay acting relay)&lt;/span&gt;&lt;br&gt;&lt;span style=&quot;font-size: 11px;&quot;&gt;(relay name)&lt;/span&gt;&lt;span style=&quot;background-color: initial;&quot;&gt;&lt;span style=&quot;font-size: 11px;&quot;&gt;.RR - 완방(time delay release relay)&lt;/span&gt;&lt;/span&gt;&lt;/font&gt;" style="text;html=1;strokeColor=none;fillColor=none;align=left;verticalAlign=middle;whiteSpace=wrap;rounded=0;fontSize=10;" vertex="1" parent="1">
          <mxGeometry x="445" y="80" width="588" height="30" as="geometry" />
        </mxCell>
        <mxCell id="7ok6oC4QqBGluofvjfyL-238" value="&lt;font style=&quot;font-size: 10px;&quot;&gt;FMPR.AR(0)&lt;/font&gt;" style="text;html=1;strokeColor=none;fillColor=none;align=center;verticalAlign=middle;whiteSpace=wrap;rounded=0;fontFamily=Helvetica;fontSize=11;fontColor=default;" vertex="1" parent="1">
          <mxGeometry x="1188" y="405" width="47" height="12" as="geometry" />
        </mxCell>
        <mxCell id="7ok6oC4QqBGluofvjfyL-239" value="" style="endArrow=none;html=1;rounded=0;labelBackgroundColor=default;fontFamily=Helvetica;fontSize=11;fontColor=default;startSize=3;endSize=3;sourcePerimeterSpacing=0;strokeColor=default;shape=connector;jumpStyle=none;jumpSize=6;" edge="1" parent="1">
          <mxGeometry width="50" height="50" relative="1" as="geometry">
            <mxPoint x="1173" y="431" as="sourcePoint" />
            <mxPoint x="1256" y="431" as="targetPoint" />
            <Array as="points">
              <mxPoint x="1173" y="403" />
              <mxPoint x="1256" y="402.5" />
            </Array>
          </mxGeometry>
        </mxCell>
        <mxCell id="7ok6oC4QqBGluofvjfyL-240" value="&lt;font style=&quot;font-size: 10px;&quot;&gt;FMPR.RR(100)&lt;/font&gt;" style="text;html=1;strokeColor=none;fillColor=none;align=center;verticalAlign=middle;whiteSpace=wrap;rounded=0;fontFamily=Helvetica;fontSize=11;fontColor=default;" vertex="1" parent="1">
          <mxGeometry x="1194" y="418" width="47" height="12" as="geometry" />
        </mxCell>
        <mxCell id="7ok6oC4QqBGluofvjfyL-241" value="&lt;font style=&quot;font-size: 10px;&quot;&gt;BL2.AR(0)&lt;/font&gt;" style="text;html=1;strokeColor=none;fillColor=none;align=center;verticalAlign=middle;whiteSpace=wrap;rounded=0;fontFamily=Helvetica;fontSize=11;fontColor=default;" vertex="1" parent="1">
          <mxGeometry x="1188" y="545" width="47" height="12" as="geometry" />
        </mxCell>
        <mxCell id="7ok6oC4QqBGluofvjfyL-242" value="" style="endArrow=none;html=1;rounded=0;labelBackgroundColor=default;fontFamily=Helvetica;fontSize=11;fontColor=default;startSize=3;endSize=3;sourcePerimeterSpacing=0;strokeColor=default;shape=connector;jumpStyle=none;jumpSize=6;" edge="1" parent="1">
          <mxGeometry width="50" height="50" relative="1" as="geometry">
            <mxPoint x="1173" y="571" as="sourcePoint" />
            <mxPoint x="1256" y="571" as="targetPoint" />
            <Array as="points">
              <mxPoint x="1173" y="543" />
              <mxPoint x="1256" y="542.5" />
            </Array>
          </mxGeometry>
        </mxCell>
        <mxCell id="7ok6oC4QqBGluofvjfyL-243" value="&lt;font style=&quot;font-size: 10px;&quot;&gt;BL2.RR(500)&lt;/font&gt;" style="text;html=1;strokeColor=none;fillColor=none;align=center;verticalAlign=middle;whiteSpace=wrap;rounded=0;fontFamily=Helvetica;fontSize=11;fontColor=default;" vertex="1" parent="1">
          <mxGeometry x="1194" y="558" width="47" height="12" as="geometry" />
        </mxCell>
        <mxCell id="7ok6oC4QqBGluofvjfyL-244" value="&lt;font style=&quot;font-size: 10px;&quot;&gt;FP.AR(0)&lt;/font&gt;" style="text;html=1;strokeColor=none;fillColor=none;align=center;verticalAlign=middle;whiteSpace=wrap;rounded=0;fontFamily=Helvetica;fontSize=11;fontColor=default;" vertex="1" parent="1">
          <mxGeometry x="1188" y="685" width="47" height="12" as="geometry" />
        </mxCell>
        <mxCell id="7ok6oC4QqBGluofvjfyL-245" value="" style="endArrow=none;html=1;rounded=0;labelBackgroundColor=default;fontFamily=Helvetica;fontSize=11;fontColor=default;startSize=3;endSize=3;sourcePerimeterSpacing=0;strokeColor=default;shape=connector;jumpStyle=none;jumpSize=6;" edge="1" parent="1">
          <mxGeometry width="50" height="50" relative="1" as="geometry">
            <mxPoint x="1173" y="711" as="sourcePoint" />
            <mxPoint x="1256" y="711" as="targetPoint" />
            <Array as="points">
              <mxPoint x="1173" y="683" />
              <mxPoint x="1256" y="682.5" />
            </Array>
          </mxGeometry>
        </mxCell>
        <mxCell id="7ok6oC4QqBGluofvjfyL-246" value="&lt;font style=&quot;font-size: 10px;&quot;&gt;FP.RR(100)&lt;/font&gt;" style="text;html=1;strokeColor=none;fillColor=none;align=center;verticalAlign=middle;whiteSpace=wrap;rounded=0;fontFamily=Helvetica;fontSize=11;fontColor=default;" vertex="1" parent="1">
          <mxGeometry x="1194" y="698" width="47" height="12" as="geometry" />
        </mxCell>
        <mxCell id="7ok6oC4QqBGluofvjfyL-247" value="&lt;font style=&quot;font-size: 10px;&quot;&gt;FP2.AR(0)&lt;/font&gt;" style="text;html=1;strokeColor=none;fillColor=none;align=center;verticalAlign=middle;whiteSpace=wrap;rounded=0;fontFamily=Helvetica;fontSize=11;fontColor=default;" vertex="1" parent="1">
          <mxGeometry x="1188" y="881" width="47" height="12" as="geometry" />
        </mxCell>
        <mxCell id="7ok6oC4QqBGluofvjfyL-248" value="" style="endArrow=none;html=1;rounded=0;labelBackgroundColor=default;fontFamily=Helvetica;fontSize=11;fontColor=default;startSize=3;endSize=3;sourcePerimeterSpacing=0;strokeColor=default;shape=connector;jumpStyle=none;jumpSize=6;" edge="1" parent="1">
          <mxGeometry width="50" height="50" relative="1" as="geometry">
            <mxPoint x="1173" y="907" as="sourcePoint" />
            <mxPoint x="1256" y="907" as="targetPoint" />
            <Array as="points">
              <mxPoint x="1173" y="879" />
              <mxPoint x="1256" y="878.5" />
            </Array>
          </mxGeometry>
        </mxCell>
        <mxCell id="7ok6oC4QqBGluofvjfyL-249" value="&lt;font style=&quot;font-size: 10px;&quot;&gt;FP2.RR(100)&lt;/font&gt;" style="text;html=1;strokeColor=none;fillColor=none;align=center;verticalAlign=middle;whiteSpace=wrap;rounded=0;fontFamily=Helvetica;fontSize=11;fontColor=default;" vertex="1" parent="1">
          <mxGeometry x="1194" y="894" width="47" height="12" as="geometry" />
        </mxCell>
        <mxCell id="7ok6oC4QqBGluofvjfyL-250" value="&lt;font style=&quot;font-size: 10px;&quot;&gt;FP3.AR(0)&lt;/font&gt;" style="text;html=1;strokeColor=none;fillColor=none;align=center;verticalAlign=middle;whiteSpace=wrap;rounded=0;fontFamily=Helvetica;fontSize=11;fontColor=default;" vertex="1" parent="1">
          <mxGeometry x="1188" y="1022" width="47" height="12" as="geometry" />
        </mxCell>
        <mxCell id="7ok6oC4QqBGluofvjfyL-251" value="" style="endArrow=none;html=1;rounded=0;labelBackgroundColor=default;fontFamily=Helvetica;fontSize=11;fontColor=default;startSize=3;endSize=3;sourcePerimeterSpacing=0;strokeColor=default;shape=connector;jumpStyle=none;jumpSize=6;" edge="1" parent="1">
          <mxGeometry width="50" height="50" relative="1" as="geometry">
            <mxPoint x="1173" y="1048" as="sourcePoint" />
            <mxPoint x="1256" y="1048" as="targetPoint" />
            <Array as="points">
              <mxPoint x="1173" y="1020" />
              <mxPoint x="1256" y="1019.5" />
            </Array>
          </mxGeometry>
        </mxCell>
        <mxCell id="7ok6oC4QqBGluofvjfyL-252" value="&lt;font style=&quot;font-size: 10px;&quot;&gt;FP3.RR(100)&lt;/font&gt;" style="text;html=1;strokeColor=none;fillColor=none;align=center;verticalAlign=middle;whiteSpace=wrap;rounded=0;fontFamily=Helvetica;fontSize=11;fontColor=default;" vertex="1" parent="1">
          <mxGeometry x="1194" y="1035" width="47" height="12" as="geometry" />
        </mxCell>
        <mxCell id="7ok6oC4QqBGluofvjfyL-253" value="&lt;font style=&quot;font-size: 10px;&quot;&gt;GE1U.AR(0)&lt;/font&gt;" style="text;html=1;strokeColor=none;fillColor=none;align=center;verticalAlign=middle;whiteSpace=wrap;rounded=0;fontFamily=Helvetica;fontSize=11;fontColor=default;" vertex="1" parent="1">
          <mxGeometry x="1188" y="1189" width="47" height="12" as="geometry" />
        </mxCell>
        <mxCell id="7ok6oC4QqBGluofvjfyL-254" value="" style="endArrow=none;html=1;rounded=0;labelBackgroundColor=default;fontFamily=Helvetica;fontSize=11;fontColor=default;startSize=3;endSize=3;sourcePerimeterSpacing=0;strokeColor=default;shape=connector;jumpStyle=none;jumpSize=6;" edge="1" parent="1">
          <mxGeometry width="50" height="50" relative="1" as="geometry">
            <mxPoint x="1173" y="1215" as="sourcePoint" />
            <mxPoint x="1256" y="1215" as="targetPoint" />
            <Array as="points">
              <mxPoint x="1173" y="1187" />
              <mxPoint x="1256" y="1186.5" />
            </Array>
          </mxGeometry>
        </mxCell>
        <mxCell id="7ok6oC4QqBGluofvjfyL-255" value="&lt;font style=&quot;font-size: 10px;&quot;&gt;GE1U.RR(100)&lt;/font&gt;" style="text;html=1;strokeColor=none;fillColor=none;align=center;verticalAlign=middle;whiteSpace=wrap;rounded=0;fontFamily=Helvetica;fontSize=11;fontColor=default;" vertex="1" parent="1">
          <mxGeometry x="1194" y="1202" width="47" height="12" as="geometry" />
        </mxCell>
        <mxCell id="7ok6oC4QqBGluofvjfyL-256" value="&lt;font style=&quot;font-size: 10px;&quot;&gt;GEU.AR(0)&lt;/font&gt;" style="text;html=1;strokeColor=none;fillColor=none;align=center;verticalAlign=middle;whiteSpace=wrap;rounded=0;fontFamily=Helvetica;fontSize=11;fontColor=default;" vertex="1" parent="1">
          <mxGeometry x="1188" y="1273" width="47" height="12" as="geometry" />
        </mxCell>
        <mxCell id="7ok6oC4QqBGluofvjfyL-257" value="" style="endArrow=none;html=1;rounded=0;labelBackgroundColor=default;fontFamily=Helvetica;fontSize=11;fontColor=default;startSize=3;endSize=3;sourcePerimeterSpacing=0;strokeColor=default;shape=connector;jumpStyle=none;jumpSize=6;" edge="1" parent="1">
          <mxGeometry width="50" height="50" relative="1" as="geometry">
            <mxPoint x="1173" y="1299" as="sourcePoint" />
            <mxPoint x="1256" y="1299" as="targetPoint" />
            <Array as="points">
              <mxPoint x="1173" y="1271" />
              <mxPoint x="1256" y="1270.5" />
            </Array>
          </mxGeometry>
        </mxCell>
        <mxCell id="7ok6oC4QqBGluofvjfyL-258" value="&lt;font style=&quot;font-size: 10px;&quot;&gt;GEU.RR(100)&lt;/font&gt;" style="text;html=1;strokeColor=none;fillColor=none;align=center;verticalAlign=middle;whiteSpace=wrap;rounded=0;fontFamily=Helvetica;fontSize=11;fontColor=default;" vertex="1" parent="1">
          <mxGeometry x="1194" y="1286" width="47" height="12" as="geometry" />
        </mxCell>
        <mxCell id="7ok6oC4QqBGluofvjfyL-259" value="&lt;font style=&quot;font-size: 10px;&quot;&gt;GNU.AR(0)&lt;/font&gt;" style="text;html=1;strokeColor=none;fillColor=none;align=center;verticalAlign=middle;whiteSpace=wrap;rounded=0;fontFamily=Helvetica;fontSize=11;fontColor=default;" vertex="1" parent="1">
          <mxGeometry x="1188" y="1357" width="47" height="12" as="geometry" />
        </mxCell>
        <mxCell id="7ok6oC4QqBGluofvjfyL-260" value="" style="endArrow=none;html=1;rounded=0;labelBackgroundColor=default;fontFamily=Helvetica;fontSize=11;fontColor=default;startSize=3;endSize=3;sourcePerimeterSpacing=0;strokeColor=default;shape=connector;jumpStyle=none;jumpSize=6;" edge="1" parent="1">
          <mxGeometry width="50" height="50" relative="1" as="geometry">
            <mxPoint x="1173" y="1383" as="sourcePoint" />
            <mxPoint x="1256" y="1383" as="targetPoint" />
            <Array as="points">
              <mxPoint x="1173" y="1355" />
              <mxPoint x="1256" y="1354.5" />
            </Array>
          </mxGeometry>
        </mxCell>
        <mxCell id="7ok6oC4QqBGluofvjfyL-261" value="&lt;font style=&quot;font-size: 10px;&quot;&gt;GNU.RR(100)&lt;/font&gt;" style="text;html=1;strokeColor=none;fillColor=none;align=center;verticalAlign=middle;whiteSpace=wrap;rounded=0;fontFamily=Helvetica;fontSize=11;fontColor=default;" vertex="1" parent="1">
          <mxGeometry x="1194" y="1370" width="47" height="12" as="geometry" />
        </mxCell>
        <mxCell id="7ok6oC4QqBGluofvjfyL-262" value="&lt;font style=&quot;font-size: 10px;&quot;&gt;RLMRA.AR(0)&lt;/font&gt;" style="text;html=1;strokeColor=none;fillColor=none;align=center;verticalAlign=middle;whiteSpace=wrap;rounded=0;fontFamily=Helvetica;fontSize=11;fontColor=default;" vertex="1" parent="1">
          <mxGeometry x="1187" y="1665" width="47" height="12" as="geometry" />
        </mxCell>
        <mxCell id="7ok6oC4QqBGluofvjfyL-263" value="" style="endArrow=none;html=1;rounded=0;labelBackgroundColor=default;fontFamily=Helvetica;fontSize=11;fontColor=default;startSize=3;endSize=3;sourcePerimeterSpacing=0;strokeColor=default;shape=connector;jumpStyle=none;jumpSize=6;" edge="1" parent="1">
          <mxGeometry width="50" height="50" relative="1" as="geometry">
            <mxPoint x="1173" y="1691" as="sourcePoint" />
            <mxPoint x="1256" y="1691" as="targetPoint" />
            <Array as="points">
              <mxPoint x="1173" y="1663" />
              <mxPoint x="1256" y="1662.5" />
            </Array>
          </mxGeometry>
        </mxCell>
        <mxCell id="7ok6oC4QqBGluofvjfyL-264" value="&lt;font style=&quot;font-size: 10px;&quot;&gt;RLMRA.RR(100)&lt;/font&gt;" style="text;html=1;strokeColor=none;fillColor=none;align=center;verticalAlign=middle;whiteSpace=wrap;rounded=0;fontFamily=Helvetica;fontSize=11;fontColor=default;" vertex="1" parent="1">
          <mxGeometry x="1193" y="1678" width="47" height="12" as="geometry" />
        </mxCell>
      </root>
    </mxGraphModel>
  </diagram>
</mxfile>
